M48
; DRILL file {KiCad (5.1.10)-1} date 09/08/21 13:01:46
; FORMAT={-:-/ absolute / metric / decimal}
; #@! TF.CreationDate,2021-09-08T13:01:46+02:00
; #@! TF.GenerationSoftware,Kicad,Pcbnew,(5.1.10)-1
; #@! TF.FileFunction,Plated,1,2,PTH
FMAT,2
METRIC
T1C0.400
T2C0.950
T3C1.000
T4C1.300
%
G90
G05
T1
X-17.6Y9.8
X-16.4Y14.4
X-15.4Y3.4
X-7.2Y11.8
X-6.4Y1.6
X-5.4Y-7.8
X10.6Y-1.0
T2
X13.7Y29.8
X13.7Y27.3
X13.7Y24.8
X13.7Y22.3
X13.95Y15.05
X13.95Y12.55
X13.95Y10.05
T3
X-21.2Y-15.2
X-21.2Y-30.6
X6.2Y12.2
X6.2Y9.66
X6.7Y31.4
X6.7Y28.86
X6.7Y26.32
X6.7Y23.78
X8.2Y-20.4
X8.2Y-25.4
X15.2Y-0.45
X15.2Y-2.99
X15.2Y-5.53
X21.95Y1.3
X21.95Y-1.24
X21.95Y-3.78
X21.95Y-6.32
T4
X16.7Y-13.95
X16.7Y-18.95
X16.7Y-25.2
X16.7Y-30.2
T0
M30
