%TF.GenerationSoftware,KiCad,Pcbnew,(5.1.10)-1*%
%TF.CreationDate,2021-09-08T13:01:39+02:00*%
%TF.ProjectId,LUCES,4c554345-532e-46b6-9963-61645f706362,rev?*%
%TF.SameCoordinates,Original*%
%TF.FileFunction,Copper,L2,Bot*%
%TF.FilePolarity,Positive*%
%FSLAX46Y46*%
G04 Gerber Fmt 4.6, Leading zero omitted, Abs format (unit mm)*
G04 Created by KiCad (PCBNEW (5.1.10)-1) date 2021-09-08 13:01:39*
%MOMM*%
%LPD*%
G01*
G04 APERTURE LIST*
%TA.AperFunction,NonConductor*%
%ADD10C,0.300000*%
%TD*%
%TA.AperFunction,ComponentPad*%
%ADD11O,1.700000X1.700000*%
%TD*%
%TA.AperFunction,ComponentPad*%
%ADD12R,1.700000X1.700000*%
%TD*%
%TA.AperFunction,ComponentPad*%
%ADD13C,2.300000*%
%TD*%
%TA.AperFunction,ComponentPad*%
%ADD14R,2.300000X2.000000*%
%TD*%
%TA.AperFunction,ComponentPad*%
%ADD15C,2.600000*%
%TD*%
%TA.AperFunction,ComponentPad*%
%ADD16R,2.600000X2.600000*%
%TD*%
%TA.AperFunction,ComponentPad*%
%ADD17O,1.950000X1.700000*%
%TD*%
%TA.AperFunction,ViaPad*%
%ADD18C,1.000000*%
%TD*%
%TA.AperFunction,Conductor*%
%ADD19C,2.000000*%
%TD*%
%TA.AperFunction,Conductor*%
%ADD20C,0.500000*%
%TD*%
%TA.AperFunction,Conductor*%
%ADD21C,0.800000*%
%TD*%
%TA.AperFunction,Conductor*%
%ADD22C,0.254000*%
%TD*%
%TA.AperFunction,Conductor*%
%ADD23C,0.020000*%
%TD*%
G04 APERTURE END LIST*
D10*
X683571Y-27853571D02*
X1397857Y-27853571D01*
X1397857Y-26353571D01*
X183571Y-26353571D02*
X183571Y-27567857D01*
X112142Y-27710714D01*
X40714Y-27782142D01*
X-102142Y-27853571D01*
X-387857Y-27853571D01*
X-530714Y-27782142D01*
X-602142Y-27710714D01*
X-673571Y-27567857D01*
X-673571Y-26353571D01*
X-2244999Y-27710714D02*
X-2173571Y-27782142D01*
X-1959285Y-27853571D01*
X-1816428Y-27853571D01*
X-1602142Y-27782142D01*
X-1459285Y-27639285D01*
X-1387857Y-27496428D01*
X-1316428Y-27210714D01*
X-1316428Y-26996428D01*
X-1387857Y-26710714D01*
X-1459285Y-26567857D01*
X-1602142Y-26425000D01*
X-1816428Y-26353571D01*
X-1959285Y-26353571D01*
X-2173571Y-26425000D01*
X-2244999Y-26496428D01*
X-2887857Y-27067857D02*
X-3387857Y-27067857D01*
X-3602142Y-27853571D02*
X-2887857Y-27853571D01*
X-2887857Y-26353571D01*
X-3602142Y-26353571D01*
X-4173571Y-27782142D02*
X-4387857Y-27853571D01*
X-4744999Y-27853571D01*
X-4887857Y-27782142D01*
X-4959285Y-27710714D01*
X-5030714Y-27567857D01*
X-5030714Y-27425000D01*
X-4959285Y-27282142D01*
X-4887857Y-27210714D01*
X-4744999Y-27139285D01*
X-4459285Y-27067857D01*
X-4316428Y-26996428D01*
X-4244999Y-26925000D01*
X-4173571Y-26782142D01*
X-4173571Y-26639285D01*
X-4244999Y-26496428D01*
X-4316428Y-26425000D01*
X-4459285Y-26353571D01*
X-4816428Y-26353571D01*
X-5030714Y-26425000D01*
X-6816428Y-27853571D02*
X-6816428Y-26353571D01*
X-7387857Y-26353571D01*
X-7530714Y-26425000D01*
X-7602142Y-26496428D01*
X-7673571Y-26639285D01*
X-7673571Y-26853571D01*
X-7602142Y-26996428D01*
X-7530714Y-27067857D01*
X-7387857Y-27139285D01*
X-6816428Y-27139285D01*
X-9173571Y-27710714D02*
X-9102142Y-27782142D01*
X-8887857Y-27853571D01*
X-8744999Y-27853571D01*
X-8530714Y-27782142D01*
X-8387857Y-27639285D01*
X-8316428Y-27496428D01*
X-8244999Y-27210714D01*
X-8244999Y-26996428D01*
X-8316428Y-26710714D01*
X-8387857Y-26567857D01*
X-8530714Y-26425000D01*
X-8744999Y-26353571D01*
X-8887857Y-26353571D01*
X-9102142Y-26425000D01*
X-9173571Y-26496428D01*
X-10316428Y-27067857D02*
X-10530714Y-27139285D01*
X-10602142Y-27210714D01*
X-10673571Y-27353571D01*
X-10673571Y-27567857D01*
X-10602142Y-27710714D01*
X-10530714Y-27782142D01*
X-10387857Y-27853571D01*
X-9816428Y-27853571D01*
X-9816428Y-26353571D01*
X-10316428Y-26353571D01*
X-10459285Y-26425000D01*
X-10530714Y-26496428D01*
X-10602142Y-26639285D01*
X-10602142Y-26782142D01*
X-10530714Y-26925000D01*
X-10459285Y-26996428D01*
X-10316428Y-27067857D01*
X-9816428Y-27067857D01*
X-12316428Y-26853571D02*
X-12673571Y-27853571D01*
X-13030714Y-26853571D01*
X-14387857Y-27853571D02*
X-13530714Y-27853571D01*
X-13959285Y-27853571D02*
X-13959285Y-26353571D01*
X-13816428Y-26567857D01*
X-13673571Y-26710714D01*
X-13530714Y-26782142D01*
X-15030714Y-27710714D02*
X-15102142Y-27782142D01*
X-15030714Y-27853571D01*
X-14959285Y-27782142D01*
X-15030714Y-27710714D01*
X-15030714Y-27853571D01*
X-16030714Y-26353571D02*
X-16173571Y-26353571D01*
X-16316428Y-26425000D01*
X-16387857Y-26496428D01*
X-16459285Y-26639285D01*
X-16530714Y-26925000D01*
X-16530714Y-27282142D01*
X-16459285Y-27567857D01*
X-16387857Y-27710714D01*
X-16316428Y-27782142D01*
X-16173571Y-27853571D01*
X-16030714Y-27853571D01*
X-15887857Y-27782142D01*
X-15816428Y-27710714D01*
X-15745000Y-27567857D01*
X-15673571Y-27282142D01*
X-15673571Y-26925000D01*
X-15745000Y-26639285D01*
X-15816428Y-26496428D01*
X-15887857Y-26425000D01*
X-16030714Y-26353571D01*
X969285Y-28903571D02*
X969285Y-29975000D01*
X1040714Y-30189285D01*
X1183571Y-30332142D01*
X1397857Y-30403571D01*
X1540714Y-30403571D01*
X255000Y-29617857D02*
X-245000Y-29617857D01*
X-459285Y-30403571D02*
X255000Y-30403571D01*
X255000Y-28903571D01*
X-459285Y-28903571D01*
X-1030714Y-30332142D02*
X-1245000Y-30403571D01*
X-1602142Y-30403571D01*
X-1745000Y-30332142D01*
X-1816428Y-30260714D01*
X-1887857Y-30117857D01*
X-1887857Y-29975000D01*
X-1816428Y-29832142D01*
X-1745000Y-29760714D01*
X-1602142Y-29689285D01*
X-1316428Y-29617857D01*
X-1173571Y-29546428D01*
X-1102142Y-29475000D01*
X-1030714Y-29332142D01*
X-1030714Y-29189285D01*
X-1102142Y-29046428D01*
X-1173571Y-28975000D01*
X-1316428Y-28903571D01*
X-1673571Y-28903571D01*
X-1887857Y-28975000D01*
X-2530714Y-28903571D02*
X-2530714Y-30117857D01*
X-2602142Y-30260714D01*
X-2673571Y-30332142D01*
X-2816428Y-30403571D01*
X-3102142Y-30403571D01*
X-3245000Y-30332142D01*
X-3316428Y-30260714D01*
X-3387857Y-30117857D01*
X-3387857Y-28903571D01*
X-4030714Y-30332142D02*
X-4245000Y-30403571D01*
X-4602142Y-30403571D01*
X-4745000Y-30332142D01*
X-4816428Y-30260714D01*
X-4887857Y-30117857D01*
X-4887857Y-29975000D01*
X-4816428Y-29832142D01*
X-4745000Y-29760714D01*
X-4602142Y-29689285D01*
X-4316428Y-29617857D01*
X-4173571Y-29546428D01*
X-4102142Y-29475000D01*
X-4030714Y-29332142D01*
X-4030714Y-29189285D01*
X-4102142Y-29046428D01*
X-4173571Y-28975000D01*
X-4316428Y-28903571D01*
X-4673571Y-28903571D01*
X-4887857Y-28975000D01*
X-6673571Y-30403571D02*
X-6673571Y-28903571D01*
X-7173571Y-29975000D01*
X-7673571Y-28903571D01*
X-7673571Y-30403571D01*
X-8387857Y-28903571D02*
X-8387857Y-30117857D01*
X-8459285Y-30260714D01*
X-8530714Y-30332142D01*
X-8673571Y-30403571D01*
X-8959285Y-30403571D01*
X-9102142Y-30332142D01*
X-9173571Y-30260714D01*
X-9245000Y-30117857D01*
X-9245000Y-28903571D01*
X-9959285Y-30403571D02*
X-9959285Y-28903571D01*
X-10816428Y-30403571D01*
X-10816428Y-28903571D01*
X-10030714Y-28546428D02*
X-10102142Y-28475000D01*
X-10245000Y-28403571D01*
X-10530714Y-28546428D01*
X-10673571Y-28475000D01*
X-10745000Y-28403571D01*
X-11816428Y-28903571D02*
X-12102142Y-28903571D01*
X-12244999Y-28975000D01*
X-12387857Y-29117857D01*
X-12459285Y-29403571D01*
X-12459285Y-29903571D01*
X-12387857Y-30189285D01*
X-12244999Y-30332142D01*
X-12102142Y-30403571D01*
X-11816428Y-30403571D01*
X-11673571Y-30332142D01*
X-11530714Y-30189285D01*
X-11459285Y-29903571D01*
X-11459285Y-29403571D01*
X-11530714Y-29117857D01*
X-11673571Y-28975000D01*
X-11816428Y-28903571D01*
X-12959285Y-28903571D02*
X-13959285Y-28903571D01*
X-12959285Y-30403571D01*
X-13959285Y-30403571D01*
D11*
%TO.P,J7,3*%
%TO.N,Earth*%
X15200000Y-5530000D03*
%TO.P,J7,2*%
%TO.N,+5V*%
X15200000Y-2990000D03*
D12*
%TO.P,J7,1*%
%TO.N,/PWM*%
X15200000Y-450000D03*
%TD*%
D11*
%TO.P,J4,4*%
%TO.N,Earth*%
X21950000Y-6320000D03*
%TO.P,J4,3*%
%TO.N,+5V*%
X21950000Y-3780000D03*
%TO.P,J4,2*%
%TO.N,/ZC*%
X21950000Y-1240000D03*
D12*
%TO.P,J4,1*%
%TO.N,/DIM*%
X21950000Y1300000D03*
%TD*%
D13*
%TO.P,PS1,4*%
%TO.N,+5V*%
X-21200000Y-15200000D03*
%TO.P,PS1,2*%
%TO.N,/N_in*%
X8200000Y-20400000D03*
D14*
%TO.P,PS1,1*%
%TO.N,/L_in*%
X8200000Y-25400000D03*
D13*
%TO.P,PS1,3*%
%TO.N,Earth*%
X-21200000Y-30600000D03*
%TD*%
D11*
%TO.P,JP1,2*%
%TO.N,Earth*%
X6200000Y12200000D03*
D12*
%TO.P,JP1,1*%
%TO.N,Net-(JP1-Pad1)*%
X6200000Y9660000D03*
%TD*%
D15*
%TO.P,J2,2*%
%TO.N,/N_in*%
X16700000Y-13950000D03*
D16*
%TO.P,J2,1*%
%TO.N,Net-(J2-Pad1)*%
X16700000Y-18950000D03*
%TD*%
D11*
%TO.P,J5,4*%
%TO.N,Earth*%
X6700000Y23780000D03*
%TO.P,J5,3*%
%TO.N,Net-(J5-Pad3)*%
X6700000Y26320000D03*
%TO.P,J5,2*%
%TO.N,Net-(J5-Pad2)*%
X6700000Y28860000D03*
D12*
%TO.P,J5,1*%
%TO.N,+3V3*%
X6700000Y31400000D03*
%TD*%
D17*
%TO.P,J6,3*%
%TO.N,Earth*%
X13950000Y15050000D03*
%TO.P,J6,2*%
%TO.N,/PIR*%
X13950000Y12550000D03*
%TO.P,J6,1*%
%TO.N,+5V*%
%TA.AperFunction,ComponentPad*%
G36*
G01*
X14675000Y9200000D02*
X13225000Y9200000D01*
G75*
G02*
X12975000Y9450000I0J250000D01*
G01*
X12975000Y10650000D01*
G75*
G02*
X13225000Y10900000I250000J0D01*
G01*
X14675000Y10900000D01*
G75*
G02*
X14925000Y10650000I0J-250000D01*
G01*
X14925000Y9450000D01*
G75*
G02*
X14675000Y9200000I-250000J0D01*
G01*
G37*
%TD.AperFunction*%
%TD*%
D15*
%TO.P,J1,2*%
%TO.N,/N_in*%
X16700000Y-25200000D03*
D16*
%TO.P,J1,1*%
%TO.N,/L_in*%
X16700000Y-30200000D03*
%TD*%
D17*
%TO.P,J3,4*%
%TO.N,/SCL*%
X13700000Y29800000D03*
%TO.P,J3,3*%
%TO.N,/SDA*%
X13700000Y27300000D03*
%TO.P,J3,2*%
%TO.N,Earth*%
X13700000Y24800000D03*
%TO.P,J3,1*%
%TO.N,+3V3*%
%TA.AperFunction,ComponentPad*%
G36*
G01*
X14425000Y21450000D02*
X12975000Y21450000D01*
G75*
G02*
X12725000Y21700000I0J250000D01*
G01*
X12725000Y22900000D01*
G75*
G02*
X12975000Y23150000I250000J0D01*
G01*
X14425000Y23150000D01*
G75*
G02*
X14675000Y22900000I0J-250000D01*
G01*
X14675000Y21700000D01*
G75*
G02*
X14425000Y21450000I-250000J0D01*
G01*
G37*
%TD.AperFunction*%
%TD*%
D18*
%TO.N,Earth*%
X10600000Y-1000000D03*
X-5400000Y-7800000D03*
X-15400000Y3400000D03*
%TO.N,Net-(R1-Pad1)*%
X-7200000Y11800000D03*
X-6400000Y1600000D03*
%TO.N,+3V3*%
X-17600000Y9800000D03*
%TO.N,/PIR*%
X-16400000Y14400000D03*
%TD*%
D19*
%TO.N,/N_in*%
X16700000Y-25200000D02*
X11820000Y-20320000D01*
X8280000Y-20320000D02*
X8200000Y-20400000D01*
X11820000Y-20320000D02*
X8280000Y-20320000D01*
X8200000Y-20400000D02*
X8200000Y-15930000D01*
X10180000Y-13950000D02*
X16700000Y-13950000D01*
X8200000Y-15930000D02*
X10180000Y-13950000D01*
%TO.N,/L_in*%
X13000000Y-30200000D02*
X8200000Y-25400000D01*
X16700000Y-30200000D02*
X13000000Y-30200000D01*
D20*
%TO.N,Earth*%
X12680000Y23780000D02*
X13700000Y24800000D01*
X6700000Y23780000D02*
X12680000Y23780000D01*
X13700000Y24800000D02*
X16000000Y24800000D01*
X16000000Y24800000D02*
X17400000Y23400000D01*
X17400000Y18500000D02*
X13950000Y15050000D01*
X17400000Y23400000D02*
X17400000Y18500000D01*
X10600000Y-1000000D02*
X10600000Y-4200000D01*
X11930000Y-5530000D02*
X15200000Y-5530000D01*
X10600000Y-4200000D02*
X11930000Y-5530000D01*
X1400000Y-1000000D02*
X10600000Y-1000000D01*
X-5400000Y-7800000D02*
X1400000Y-1000000D01*
X-5400000Y-6600000D02*
X-5400000Y-7800000D01*
X-15400000Y3400000D02*
X-5400000Y-6600000D01*
X18350000Y15050000D02*
X13950000Y15050000D01*
X23719990Y9680010D02*
X18350000Y15050000D01*
X23719990Y-5780010D02*
X23719990Y9680010D01*
X23180000Y-6320000D02*
X23719990Y-5780010D01*
X21950000Y-6320000D02*
X23180000Y-6320000D01*
%TO.N,Net-(R1-Pad1)*%
X-7000000Y1600000D02*
X-7200000Y1800000D01*
X-6400000Y1600000D02*
X-7000000Y1600000D01*
X-7200000Y1800000D02*
X-7200000Y11800000D01*
%TO.N,+5V*%
X15200000Y-2990000D02*
X12990000Y-2990000D01*
X12990000Y-2990000D02*
X12400000Y-2400000D01*
X12400000Y8500000D02*
X13950000Y10050000D01*
X12400000Y-2400000D02*
X12400000Y8500000D01*
D21*
X15200000Y-2990000D02*
X15690000Y-2990000D01*
X-8200000Y-15200000D02*
X-21200000Y-15200000D01*
X17500000Y-8700000D02*
X-1700000Y-8700000D01*
X18100000Y-8100000D02*
X17500000Y-8700000D01*
X16690000Y-2990000D02*
X18100000Y-4400000D01*
X-1700000Y-8700000D02*
X-8200000Y-15200000D01*
X18100000Y-4400000D02*
X18100000Y-8100000D01*
X15200000Y-2990000D02*
X16690000Y-2990000D01*
X18720000Y-3780000D02*
X18100000Y-4400000D01*
X21950000Y-3780000D02*
X18720000Y-3780000D01*
D20*
%TO.N,+3V3*%
X-17600000Y9800000D02*
X-17600000Y15400000D01*
X-17600000Y15400000D02*
X-15800000Y17200000D01*
X-5600000Y17200000D02*
X-3000000Y19800000D01*
X-15800000Y17200000D02*
X-5600000Y17200000D01*
X11200000Y19800000D02*
X13700000Y22300000D01*
X-3000000Y19800000D02*
X11200000Y19800000D01*
X6700000Y31400000D02*
X5050010Y31400000D01*
X-2222166Y19800000D02*
X-3000000Y19800000D01*
X5050010Y27072176D02*
X-2222166Y19800000D01*
X5050010Y31400000D02*
X5050010Y27072176D01*
%TO.N,/PIR*%
X-16400000Y14400000D02*
X-15800000Y15000000D01*
X-15800000Y15000000D02*
X8600000Y15000000D01*
X11050000Y12550000D02*
X13950000Y12550000D01*
X8600000Y15000000D02*
X11050000Y12550000D01*
%TD*%
D22*
%TO.N,Earth*%
X-15927000Y26400000D02*
X-15924300Y26373954D01*
X-15916831Y26350205D01*
X-15904871Y26328369D01*
X-15888882Y26309286D01*
X-15869476Y26293689D01*
X-15847401Y26282178D01*
X-15823504Y26275194D01*
X-15798704Y26273007D01*
X3418804Y26469104D01*
X-2523298Y20527000D01*
X-2964293Y20527000D01*
X-3000001Y20530517D01*
X-3142518Y20516480D01*
X-3174413Y20506805D01*
X-3279557Y20474910D01*
X-3405853Y20407403D01*
X-3516554Y20316554D01*
X-3539321Y20288812D01*
X-5901132Y17927000D01*
X-15764295Y17927000D01*
X-15800001Y17930517D01*
X-15835706Y17927000D01*
X-15835708Y17927000D01*
X-15942517Y17916480D01*
X-16079557Y17874910D01*
X-16205853Y17807403D01*
X-16316554Y17716554D01*
X-16339321Y17688812D01*
X-18088811Y15939321D01*
X-18116553Y15916554D01*
X-18207402Y15805853D01*
X-18274910Y15679556D01*
X-18316480Y15542517D01*
X-18330517Y15400000D01*
X-18326999Y15364282D01*
X-18327000Y10454686D01*
X-18358885Y10422801D01*
X-18465806Y10262783D01*
X-18539454Y10084980D01*
X-18577000Y9896226D01*
X-18577000Y9703774D01*
X-18539454Y9515020D01*
X-18465806Y9337217D01*
X-18358885Y9177199D01*
X-18222801Y9041115D01*
X-18062783Y8934194D01*
X-17884980Y8860546D01*
X-17696226Y8823000D01*
X-17503774Y8823000D01*
X-17315020Y8860546D01*
X-17137217Y8934194D01*
X-16977199Y9041115D01*
X-16841115Y9177199D01*
X-16734194Y9337217D01*
X-16660546Y9515020D01*
X-16623000Y9703774D01*
X-16623000Y9896226D01*
X-16660546Y10084980D01*
X-16734194Y10262783D01*
X-16841115Y10422801D01*
X-16873000Y10454686D01*
X-16873000Y11896226D01*
X-8177000Y11896226D01*
X-8177000Y11703774D01*
X-8139454Y11515020D01*
X-8065806Y11337217D01*
X-7958885Y11177199D01*
X-7926999Y11145313D01*
X-7927000Y1835708D01*
X-7930517Y1800000D01*
X-7927000Y1764293D01*
X-7916480Y1657484D01*
X-7874910Y1520444D01*
X-7807403Y1394148D01*
X-7716554Y1283447D01*
X-7688812Y1260679D01*
X-7539322Y1111189D01*
X-7516554Y1083446D01*
X-7405853Y992597D01*
X-7279557Y925090D01*
X-7211037Y904305D01*
X-7142518Y883520D01*
X-7056759Y875073D01*
X-7022801Y841115D01*
X-6862783Y734194D01*
X-6684980Y660546D01*
X-6496226Y623000D01*
X-6303774Y623000D01*
X-6115020Y660546D01*
X-5937217Y734194D01*
X-5777199Y841115D01*
X-5641115Y977199D01*
X-5534194Y1137217D01*
X-5460546Y1315020D01*
X-5423000Y1503774D01*
X-5423000Y1696226D01*
X-5460546Y1884980D01*
X-5534194Y2062783D01*
X-5641115Y2222801D01*
X-5777199Y2358885D01*
X-5937217Y2465806D01*
X-6115020Y2539454D01*
X-6303774Y2577000D01*
X-6473000Y2577000D01*
X-6473000Y11145314D01*
X-6441115Y11177199D01*
X-6334194Y11337217D01*
X-6260546Y11515020D01*
X-6223000Y11703774D01*
X-6223000Y11843110D01*
X4758524Y11843110D01*
X4803175Y11695901D01*
X4928359Y11433080D01*
X5102412Y11199731D01*
X5318645Y11004822D01*
X5345445Y10988858D01*
X5256492Y10980097D01*
X5166577Y10952822D01*
X5083711Y10908529D01*
X5011079Y10848921D01*
X4951471Y10776289D01*
X4907178Y10693423D01*
X4879903Y10603508D01*
X4870693Y10510000D01*
X4870693Y8810000D01*
X4879903Y8716492D01*
X4907178Y8626577D01*
X4951471Y8543711D01*
X5011079Y8471079D01*
X5083711Y8411471D01*
X5166577Y8367178D01*
X5256492Y8339903D01*
X5350000Y8330693D01*
X7050000Y8330693D01*
X7143508Y8339903D01*
X7233423Y8367178D01*
X7316289Y8411471D01*
X7388921Y8471079D01*
X7448529Y8543711D01*
X7492822Y8626577D01*
X7520097Y8716492D01*
X7529307Y8810000D01*
X7529307Y10510000D01*
X7520097Y10603508D01*
X7492822Y10693423D01*
X7448529Y10776289D01*
X7388921Y10848921D01*
X7316289Y10908529D01*
X7233423Y10952822D01*
X7143508Y10980097D01*
X7054555Y10988858D01*
X7081355Y11004822D01*
X7297588Y11199731D01*
X7471641Y11433080D01*
X7596825Y11695901D01*
X7641476Y11843110D01*
X7520155Y12073000D01*
X6327000Y12073000D01*
X6327000Y12053000D01*
X6073000Y12053000D01*
X6073000Y12073000D01*
X4879845Y12073000D01*
X4758524Y11843110D01*
X-6223000Y11843110D01*
X-6223000Y11896226D01*
X-6260546Y12084980D01*
X-6334194Y12262783D01*
X-6441115Y12422801D01*
X-6575204Y12556890D01*
X4758524Y12556890D01*
X4879845Y12327000D01*
X6073000Y12327000D01*
X6073000Y13520814D01*
X6327000Y13520814D01*
X6327000Y12327000D01*
X7520155Y12327000D01*
X7641476Y12556890D01*
X7596825Y12704099D01*
X7471641Y12966920D01*
X7297588Y13200269D01*
X7081355Y13395178D01*
X6831252Y13544157D01*
X6556891Y13641481D01*
X6327000Y13520814D01*
X6073000Y13520814D01*
X5843109Y13641481D01*
X5568748Y13544157D01*
X5318645Y13395178D01*
X5102412Y13200269D01*
X4928359Y12966920D01*
X4803175Y12704099D01*
X4758524Y12556890D01*
X-6575204Y12556890D01*
X-6577199Y12558885D01*
X-6737217Y12665806D01*
X-6915020Y12739454D01*
X-7103774Y12777000D01*
X-7296226Y12777000D01*
X-7484980Y12739454D01*
X-7662783Y12665806D01*
X-7822801Y12558885D01*
X-7958885Y12422801D01*
X-8065806Y12262783D01*
X-8139454Y12084980D01*
X-8177000Y11896226D01*
X-16873000Y11896226D01*
X-16873000Y13541021D01*
X-16862783Y13534194D01*
X-16684980Y13460546D01*
X-16496226Y13423000D01*
X-16303774Y13423000D01*
X-16115020Y13460546D01*
X-15937217Y13534194D01*
X-15777199Y13641115D01*
X-15641115Y13777199D01*
X-15534194Y13937217D01*
X-15460546Y14115020D01*
X-15429121Y14273000D01*
X8298868Y14273000D01*
X10510679Y12061188D01*
X10533446Y12033446D01*
X10644147Y11942597D01*
X10770443Y11875090D01*
X10875587Y11843195D01*
X10907482Y11833520D01*
X11049999Y11819483D01*
X11085707Y11823000D01*
X12708921Y11823000D01*
X12716302Y11809192D01*
X12882130Y11607130D01*
X13084192Y11441302D01*
X13204039Y11377243D01*
X13082719Y11365294D01*
X12945906Y11323792D01*
X12819819Y11256397D01*
X12709302Y11165698D01*
X12618603Y11055181D01*
X12551208Y10929094D01*
X12509706Y10792281D01*
X12495693Y10650000D01*
X12495693Y9623825D01*
X11911189Y9039321D01*
X11883447Y9016554D01*
X11815857Y8934194D01*
X11792598Y8905853D01*
X11725090Y8779556D01*
X11683520Y8642517D01*
X11669483Y8500000D01*
X11673001Y8464282D01*
X11673000Y-2364292D01*
X11669483Y-2400000D01*
X11683520Y-2542517D01*
X11716963Y-2652764D01*
X11725090Y-2679556D01*
X11792597Y-2805852D01*
X11883446Y-2916553D01*
X11911189Y-2939321D01*
X12450678Y-3478811D01*
X12473446Y-3506554D01*
X12584147Y-3597403D01*
X12681243Y-3649302D01*
X12710443Y-3664910D01*
X12847482Y-3706480D01*
X12989999Y-3720517D01*
X13025707Y-3717000D01*
X14089797Y-3717000D01*
X14169252Y-3835913D01*
X14354087Y-4020748D01*
X14571430Y-4165972D01*
X14596035Y-4176164D01*
X14568748Y-4185843D01*
X14318645Y-4334822D01*
X14102412Y-4529731D01*
X13928359Y-4763080D01*
X13803175Y-5025901D01*
X13758524Y-5173110D01*
X13879845Y-5403000D01*
X15073000Y-5403000D01*
X15073000Y-5383000D01*
X15327000Y-5383000D01*
X15327000Y-5403000D01*
X16520155Y-5403000D01*
X16641476Y-5173110D01*
X16596825Y-5025901D01*
X16471641Y-4763080D01*
X16297588Y-4529731D01*
X16081355Y-4334822D01*
X15831252Y-4185843D01*
X15803965Y-4176164D01*
X15828570Y-4165972D01*
X16045913Y-4020748D01*
X16199661Y-3867000D01*
X16326735Y-3867000D01*
X17223000Y-4763266D01*
X17223001Y-7736734D01*
X17136735Y-7823000D01*
X-1656924Y-7823000D01*
X-1700001Y-7818757D01*
X-1743078Y-7823000D01*
X-1743079Y-7823000D01*
X-1871922Y-7835690D01*
X-2037237Y-7885838D01*
X-2189592Y-7967273D01*
X-2323133Y-8076867D01*
X-2350594Y-8110329D01*
X-8563265Y-14323000D01*
X-19829217Y-14323000D01*
X-19936227Y-14162848D01*
X-20162848Y-13936227D01*
X-20429327Y-13758172D01*
X-20725422Y-13635525D01*
X-21039755Y-13573000D01*
X-21360245Y-13573000D01*
X-21674578Y-13635525D01*
X-21970673Y-13758172D01*
X-22237152Y-13936227D01*
X-22463773Y-14162848D01*
X-22641828Y-14429327D01*
X-22764475Y-14725422D01*
X-22827000Y-15039755D01*
X-22827000Y-15360245D01*
X-22764475Y-15674578D01*
X-22641828Y-15970673D01*
X-22463773Y-16237152D01*
X-22237152Y-16463773D01*
X-21970673Y-16641828D01*
X-21674578Y-16764475D01*
X-21360245Y-16827000D01*
X-21039755Y-16827000D01*
X-20725422Y-16764475D01*
X-20429327Y-16641828D01*
X-20162848Y-16463773D01*
X-19936227Y-16237152D01*
X-19829217Y-16077000D01*
X-8243079Y-16077000D01*
X-8200000Y-16081243D01*
X-8156921Y-16077000D01*
X-8028078Y-16064310D01*
X-7862763Y-16014162D01*
X-7710408Y-15932727D01*
X-7576867Y-15823133D01*
X-7549403Y-15789668D01*
X-1336735Y-9577000D01*
X17456921Y-9577000D01*
X17500000Y-9581243D01*
X17543079Y-9577000D01*
X17671922Y-9564310D01*
X17837237Y-9514162D01*
X17989592Y-9432727D01*
X18123133Y-9323133D01*
X18150596Y-9289669D01*
X18689673Y-8750593D01*
X18723133Y-8723133D01*
X18832727Y-8589592D01*
X18914162Y-8437237D01*
X18964310Y-8271922D01*
X18977000Y-8143079D01*
X18977000Y-8143078D01*
X18981243Y-8100001D01*
X18977000Y-8056924D01*
X18977000Y-6676890D01*
X20508524Y-6676890D01*
X20553175Y-6824099D01*
X20678359Y-7086920D01*
X20852412Y-7320269D01*
X21068645Y-7515178D01*
X21318748Y-7664157D01*
X21593109Y-7761481D01*
X21823000Y-7640814D01*
X21823000Y-6447000D01*
X22077000Y-6447000D01*
X22077000Y-7640814D01*
X22306891Y-7761481D01*
X22581252Y-7664157D01*
X22831355Y-7515178D01*
X23047588Y-7320269D01*
X23221641Y-7086920D01*
X23346825Y-6824099D01*
X23391476Y-6676890D01*
X23270155Y-6447000D01*
X22077000Y-6447000D01*
X21823000Y-6447000D01*
X20629845Y-6447000D01*
X20508524Y-6676890D01*
X18977000Y-6676890D01*
X18977000Y-4763265D01*
X19083265Y-4657000D01*
X20950339Y-4657000D01*
X21104087Y-4810748D01*
X21321430Y-4955972D01*
X21346035Y-4966164D01*
X21318748Y-4975843D01*
X21068645Y-5124822D01*
X20852412Y-5319731D01*
X20678359Y-5553080D01*
X20553175Y-5815901D01*
X20508524Y-5963110D01*
X20629845Y-6193000D01*
X21823000Y-6193000D01*
X21823000Y-6173000D01*
X22077000Y-6173000D01*
X22077000Y-6193000D01*
X23270155Y-6193000D01*
X23391476Y-5963110D01*
X23346825Y-5815901D01*
X23221641Y-5553080D01*
X23047588Y-5319731D01*
X22831355Y-5124822D01*
X22581252Y-4975843D01*
X22553965Y-4966164D01*
X22578570Y-4955972D01*
X22795913Y-4810748D01*
X22980748Y-4625913D01*
X23125972Y-4408570D01*
X23226004Y-4167072D01*
X23277000Y-3910698D01*
X23277000Y-3649302D01*
X23226004Y-3392928D01*
X23125972Y-3151430D01*
X22980748Y-2934087D01*
X22795913Y-2749252D01*
X22578570Y-2604028D01*
X22351567Y-2510000D01*
X22578570Y-2415972D01*
X22795913Y-2270748D01*
X22980748Y-2085913D01*
X23125972Y-1868570D01*
X23226004Y-1627072D01*
X23277000Y-1370698D01*
X23277000Y-1109302D01*
X23226004Y-852928D01*
X23125972Y-611430D01*
X22980748Y-394087D01*
X22795913Y-209252D01*
X22578570Y-64028D01*
X22494746Y-29307D01*
X22800000Y-29307D01*
X22893508Y-20097D01*
X22983423Y7178D01*
X23066289Y51471D01*
X23138921Y111079D01*
X23198529Y183711D01*
X23242822Y266577D01*
X23270097Y356492D01*
X23279307Y450000D01*
X23279307Y2150000D01*
X23270097Y2243508D01*
X23242822Y2333423D01*
X23198529Y2416289D01*
X23138921Y2488921D01*
X23066289Y2548529D01*
X22983423Y2592822D01*
X22893508Y2620097D01*
X22800000Y2629307D01*
X21100000Y2629307D01*
X21006492Y2620097D01*
X20916577Y2592822D01*
X20833711Y2548529D01*
X20761079Y2488921D01*
X20701471Y2416289D01*
X20657178Y2333423D01*
X20629903Y2243508D01*
X20620693Y2150000D01*
X20620693Y450000D01*
X20629903Y356492D01*
X20657178Y266577D01*
X20701471Y183711D01*
X20761079Y111079D01*
X20833711Y51471D01*
X20916577Y7178D01*
X21006492Y-20097D01*
X21100000Y-29307D01*
X21405254Y-29307D01*
X21321430Y-64028D01*
X21104087Y-209252D01*
X20919252Y-394087D01*
X20774028Y-611430D01*
X20673996Y-852928D01*
X20623000Y-1109302D01*
X20623000Y-1370698D01*
X20673996Y-1627072D01*
X20774028Y-1868570D01*
X20919252Y-2085913D01*
X21104087Y-2270748D01*
X21321430Y-2415972D01*
X21548433Y-2510000D01*
X21321430Y-2604028D01*
X21104087Y-2749252D01*
X20950339Y-2903000D01*
X18763069Y-2903000D01*
X18719999Y-2898758D01*
X18676930Y-2903000D01*
X18676921Y-2903000D01*
X18548078Y-2915690D01*
X18382763Y-2965838D01*
X18230408Y-3047273D01*
X18097013Y-3156747D01*
X17340597Y-2400331D01*
X17313133Y-2366867D01*
X17179592Y-2257273D01*
X17027237Y-2175838D01*
X16861922Y-2125690D01*
X16733079Y-2113000D01*
X16690000Y-2108757D01*
X16646921Y-2113000D01*
X16199661Y-2113000D01*
X16045913Y-1959252D01*
X15828570Y-1814028D01*
X15744746Y-1779307D01*
X16050000Y-1779307D01*
X16143508Y-1770097D01*
X16233423Y-1742822D01*
X16316289Y-1698529D01*
X16388921Y-1638921D01*
X16448529Y-1566289D01*
X16492822Y-1483423D01*
X16520097Y-1393508D01*
X16529307Y-1300000D01*
X16529307Y400000D01*
X16520097Y493508D01*
X16492822Y583423D01*
X16448529Y666289D01*
X16388921Y738921D01*
X16316289Y798529D01*
X16233423Y842822D01*
X16143508Y870097D01*
X16050000Y879307D01*
X14350000Y879307D01*
X14256492Y870097D01*
X14166577Y842822D01*
X14083711Y798529D01*
X14011079Y738921D01*
X13951471Y666289D01*
X13907178Y583423D01*
X13879903Y493508D01*
X13870693Y400000D01*
X13870693Y-1300000D01*
X13879903Y-1393508D01*
X13907178Y-1483423D01*
X13951471Y-1566289D01*
X14011079Y-1638921D01*
X14083711Y-1698529D01*
X14166577Y-1742822D01*
X14256492Y-1770097D01*
X14350000Y-1779307D01*
X14655254Y-1779307D01*
X14571430Y-1814028D01*
X14354087Y-1959252D01*
X14169252Y-2144087D01*
X14089797Y-2263000D01*
X13291133Y-2263000D01*
X13127000Y-2098868D01*
X13127000Y8198868D01*
X13648825Y8720693D01*
X14675000Y8720693D01*
X14817281Y8734706D01*
X14954094Y8776208D01*
X15080181Y8843603D01*
X15190698Y8934302D01*
X15281397Y9044819D01*
X15348792Y9170906D01*
X15390294Y9307719D01*
X15404307Y9450000D01*
X15404307Y10650000D01*
X15390294Y10792281D01*
X15348792Y10929094D01*
X15281397Y11055181D01*
X15190698Y11165698D01*
X15080181Y11256397D01*
X14954094Y11323792D01*
X14817281Y11365294D01*
X14695961Y11377243D01*
X14815808Y11441302D01*
X15017870Y11607130D01*
X15183698Y11809192D01*
X15306919Y12039722D01*
X15382799Y12289863D01*
X15408420Y12550000D01*
X15382799Y12810137D01*
X15306919Y13060278D01*
X15183698Y13290808D01*
X15017870Y13492870D01*
X14815808Y13658698D01*
X14709702Y13715413D01*
X14852570Y13784947D01*
X15084429Y13960951D01*
X15277496Y14178807D01*
X15424352Y14430142D01*
X15516476Y14693110D01*
X15395155Y14923000D01*
X14077000Y14923000D01*
X14077000Y14903000D01*
X13823000Y14903000D01*
X13823000Y14923000D01*
X12504845Y14923000D01*
X12383524Y14693110D01*
X12475648Y14430142D01*
X12622504Y14178807D01*
X12815571Y13960951D01*
X13047430Y13784947D01*
X13190298Y13715413D01*
X13084192Y13658698D01*
X12882130Y13492870D01*
X12716302Y13290808D01*
X12708921Y13277000D01*
X11351133Y13277000D01*
X9221243Y15406890D01*
X12383524Y15406890D01*
X12504845Y15177000D01*
X13823000Y15177000D01*
X13823000Y16376165D01*
X14077000Y16376165D01*
X14077000Y15177000D01*
X15395155Y15177000D01*
X15516476Y15406890D01*
X15424352Y15669858D01*
X15277496Y15921193D01*
X15084429Y16139049D01*
X14852570Y16315053D01*
X14590830Y16442442D01*
X14309267Y16516320D01*
X14077000Y16376165D01*
X13823000Y16376165D01*
X13590733Y16516320D01*
X13309170Y16442442D01*
X13047430Y16315053D01*
X12815571Y16139049D01*
X12622504Y15921193D01*
X12475648Y15669858D01*
X12383524Y15406890D01*
X9221243Y15406890D01*
X9139326Y15488806D01*
X9116554Y15516554D01*
X9005853Y15607403D01*
X8879557Y15674910D01*
X8742517Y15716480D01*
X8635708Y15727000D01*
X8600000Y15730517D01*
X8564292Y15727000D01*
X-15764293Y15727000D01*
X-15800001Y15730517D01*
X-15942518Y15716480D01*
X-15974413Y15706805D01*
X-16079557Y15674910D01*
X-16205853Y15607403D01*
X-16316554Y15516554D01*
X-16339322Y15488811D01*
X-16451133Y15377000D01*
X-16496226Y15377000D01*
X-16619361Y15352507D01*
X-15498867Y16473000D01*
X-5635708Y16473000D01*
X-5600000Y16469483D01*
X-5457483Y16483520D01*
X-5320443Y16525090D01*
X-5194147Y16592597D01*
X-5083446Y16683446D01*
X-5060674Y16711194D01*
X-2698867Y19073000D01*
X-2257874Y19073000D01*
X-2222166Y19069483D01*
X-2186458Y19073000D01*
X11164292Y19073000D01*
X11200000Y19069483D01*
X11342517Y19083520D01*
X11479557Y19125090D01*
X11605853Y19192597D01*
X11716554Y19283446D01*
X11739326Y19311194D01*
X13398826Y20970693D01*
X14425000Y20970693D01*
X14567281Y20984706D01*
X14704094Y21026208D01*
X14830181Y21093603D01*
X14940698Y21184302D01*
X15031397Y21294819D01*
X15098792Y21420906D01*
X15140294Y21557719D01*
X15154307Y21700000D01*
X15154307Y22900000D01*
X15140294Y23042281D01*
X15098792Y23179094D01*
X15031397Y23305181D01*
X14940698Y23415698D01*
X14830181Y23506397D01*
X14704094Y23573792D01*
X14668119Y23584705D01*
X14834429Y23710951D01*
X15027496Y23928807D01*
X15174352Y24180142D01*
X15266476Y24443110D01*
X15145155Y24673000D01*
X13827000Y24673000D01*
X13827000Y24653000D01*
X13573000Y24653000D01*
X13573000Y24673000D01*
X12254845Y24673000D01*
X12133524Y24443110D01*
X12225648Y24180142D01*
X12372504Y23928807D01*
X12565571Y23710951D01*
X12731881Y23584705D01*
X12695906Y23573792D01*
X12569819Y23506397D01*
X12459302Y23415698D01*
X12368603Y23305181D01*
X12301208Y23179094D01*
X12259706Y23042281D01*
X12245693Y22900000D01*
X12245693Y21873826D01*
X10898868Y20527000D01*
X-467034Y20527000D01*
X2429076Y23423110D01*
X5258524Y23423110D01*
X5303175Y23275901D01*
X5428359Y23013080D01*
X5602412Y22779731D01*
X5818645Y22584822D01*
X6068748Y22435843D01*
X6343109Y22338519D01*
X6573000Y22459186D01*
X6573000Y23653000D01*
X6827000Y23653000D01*
X6827000Y22459186D01*
X7056891Y22338519D01*
X7331252Y22435843D01*
X7581355Y22584822D01*
X7797588Y22779731D01*
X7971641Y23013080D01*
X8096825Y23275901D01*
X8141476Y23423110D01*
X8020155Y23653000D01*
X6827000Y23653000D01*
X6573000Y23653000D01*
X5379845Y23653000D01*
X5258524Y23423110D01*
X2429076Y23423110D01*
X5373000Y26367032D01*
X5373000Y26189302D01*
X5423996Y25932928D01*
X5524028Y25691430D01*
X5669252Y25474087D01*
X5854087Y25289252D01*
X6071430Y25144028D01*
X6096035Y25133836D01*
X6068748Y25124157D01*
X5818645Y24975178D01*
X5602412Y24780269D01*
X5428359Y24546920D01*
X5303175Y24284099D01*
X5258524Y24136890D01*
X5379845Y23907000D01*
X6573000Y23907000D01*
X6573000Y23927000D01*
X6827000Y23927000D01*
X6827000Y23907000D01*
X8020155Y23907000D01*
X8141476Y24136890D01*
X8096825Y24284099D01*
X7971641Y24546920D01*
X7797588Y24780269D01*
X7581355Y24975178D01*
X7331252Y25124157D01*
X7303965Y25133836D01*
X7328570Y25144028D01*
X7347819Y25156890D01*
X12133524Y25156890D01*
X12254845Y24927000D01*
X13573000Y24927000D01*
X13573000Y24947000D01*
X13827000Y24947000D01*
X13827000Y24927000D01*
X15145155Y24927000D01*
X15266476Y25156890D01*
X15174352Y25419858D01*
X15027496Y25671193D01*
X14834429Y25889049D01*
X14602570Y26065053D01*
X14459702Y26134587D01*
X14565808Y26191302D01*
X14767870Y26357130D01*
X14933698Y26559192D01*
X15056919Y26789722D01*
X15132799Y27039863D01*
X15158420Y27300000D01*
X15132799Y27560137D01*
X15056919Y27810278D01*
X14933698Y28040808D01*
X14767870Y28242870D01*
X14565808Y28408698D01*
X14335278Y28531919D01*
X14275673Y28550000D01*
X14335278Y28568081D01*
X14565808Y28691302D01*
X14767870Y28857130D01*
X14933698Y29059192D01*
X15056919Y29289722D01*
X15132799Y29539863D01*
X15158420Y29800000D01*
X15132799Y30060137D01*
X15056919Y30310278D01*
X14933698Y30540808D01*
X14767870Y30742870D01*
X14565808Y30908698D01*
X14335278Y31031919D01*
X14085137Y31107799D01*
X13890184Y31127000D01*
X13509816Y31127000D01*
X13314863Y31107799D01*
X13064722Y31031919D01*
X12834192Y30908698D01*
X12632130Y30742870D01*
X12466302Y30540808D01*
X12343081Y30310278D01*
X12267201Y30060137D01*
X12241580Y29800000D01*
X12267201Y29539863D01*
X12343081Y29289722D01*
X12466302Y29059192D01*
X12632130Y28857130D01*
X12834192Y28691302D01*
X13064722Y28568081D01*
X13124327Y28550000D01*
X13064722Y28531919D01*
X12834192Y28408698D01*
X12632130Y28242870D01*
X12466302Y28040808D01*
X12343081Y27810278D01*
X12267201Y27560137D01*
X12241580Y27300000D01*
X12267201Y27039863D01*
X12343081Y26789722D01*
X12466302Y26559192D01*
X12632130Y26357130D01*
X12834192Y26191302D01*
X12940298Y26134587D01*
X12797430Y26065053D01*
X12565571Y25889049D01*
X12372504Y25671193D01*
X12225648Y25419858D01*
X12133524Y25156890D01*
X7347819Y25156890D01*
X7545913Y25289252D01*
X7730748Y25474087D01*
X7875972Y25691430D01*
X7976004Y25932928D01*
X8027000Y26189302D01*
X8027000Y26450698D01*
X7976004Y26707072D01*
X7875972Y26948570D01*
X7730748Y27165913D01*
X7545913Y27350748D01*
X7328570Y27495972D01*
X7101567Y27590000D01*
X7328570Y27684028D01*
X7545913Y27829252D01*
X7730748Y28014087D01*
X7875972Y28231430D01*
X7976004Y28472928D01*
X8027000Y28729302D01*
X8027000Y28990698D01*
X7976004Y29247072D01*
X7875972Y29488570D01*
X7730748Y29705913D01*
X7545913Y29890748D01*
X7328570Y30035972D01*
X7244746Y30070693D01*
X7550000Y30070693D01*
X7643508Y30079903D01*
X7733423Y30107178D01*
X7816289Y30151471D01*
X7888921Y30211079D01*
X7948529Y30283711D01*
X7992822Y30366577D01*
X8020097Y30456492D01*
X8029307Y30550000D01*
X8029307Y32250000D01*
X8020097Y32343508D01*
X7992822Y32433423D01*
X7948529Y32516289D01*
X7888921Y32588921D01*
X7816289Y32648529D01*
X7733423Y32692822D01*
X7643508Y32720097D01*
X7550000Y32729307D01*
X5850000Y32729307D01*
X5756492Y32720097D01*
X5666577Y32692822D01*
X5583711Y32648529D01*
X5511079Y32588921D01*
X5451471Y32516289D01*
X5407178Y32433423D01*
X5379903Y32343508D01*
X5370693Y32250000D01*
X5370693Y32127000D01*
X5085718Y32127000D01*
X5050010Y32130517D01*
X5014302Y32127000D01*
X4907493Y32116480D01*
X4770453Y32074910D01*
X4644157Y32007403D01*
X4533456Y31916554D01*
X4442607Y31805853D01*
X4375100Y31679557D01*
X4333530Y31542517D01*
X4319493Y31400000D01*
X4323010Y31364292D01*
X4323011Y27373311D01*
X3927000Y26977300D01*
X3927000Y33313000D01*
X23793000Y33313000D01*
X23793001Y-33313000D01*
X13623924Y-33313000D01*
X19601827Y-33226987D01*
X19624207Y-33224672D01*
X19648065Y-33217553D01*
X19670075Y-33205918D01*
X19689392Y-33190212D01*
X19705273Y-33171039D01*
X19717110Y-33149136D01*
X19724445Y-33125345D01*
X19726999Y-33100580D01*
X19826999Y-11200580D01*
X19824560Y-11175224D01*
X19817333Y-11151399D01*
X19805597Y-11129443D01*
X19789803Y-11110197D01*
X19770557Y-11094403D01*
X19748601Y-11082667D01*
X19724776Y-11075440D01*
X19700000Y-11073000D01*
X5600000Y-11073000D01*
X5575224Y-11075440D01*
X5551399Y-11082667D01*
X5529443Y-11094403D01*
X5510197Y-11110197D01*
X5494403Y-11129443D01*
X5482667Y-11151399D01*
X5475440Y-11175224D01*
X5473000Y-11200000D01*
X5473000Y-11300000D01*
X5473001Y-11300577D01*
X5573001Y-33300577D01*
X5574344Y-33313000D01*
X-23783000Y-33313000D01*
X-23783000Y-31842349D01*
X-22262744Y-31842349D01*
X-22148882Y-32122090D01*
X-21833704Y-32277961D01*
X-21494174Y-32369349D01*
X-21143339Y-32392741D01*
X-20794681Y-32347240D01*
X-20461600Y-32234594D01*
X-20251118Y-32122090D01*
X-20137256Y-31842349D01*
X-21200000Y-30779605D01*
X-22262744Y-31842349D01*
X-23783000Y-31842349D01*
X-23783000Y-30656661D01*
X-22992741Y-30656661D01*
X-22947240Y-31005319D01*
X-22834594Y-31338400D01*
X-22722090Y-31548882D01*
X-22442349Y-31662744D01*
X-21379605Y-30600000D01*
X-21020395Y-30600000D01*
X-19957651Y-31662744D01*
X-19677910Y-31548882D01*
X-19522039Y-31233704D01*
X-19430651Y-30894174D01*
X-19407259Y-30543339D01*
X-19452760Y-30194681D01*
X-19565406Y-29861600D01*
X-19677910Y-29651118D01*
X-19957651Y-29537256D01*
X-21020395Y-30600000D01*
X-21379605Y-30600000D01*
X-22442349Y-29537256D01*
X-22722090Y-29651118D01*
X-22877961Y-29966296D01*
X-22969349Y-30305826D01*
X-22992741Y-30656661D01*
X-23783000Y-30656661D01*
X-23783000Y-29357651D01*
X-22262744Y-29357651D01*
X-21200000Y-30420395D01*
X-20137256Y-29357651D01*
X-20251118Y-29077910D01*
X-20566296Y-28922039D01*
X-20905826Y-28830651D01*
X-21256661Y-28807259D01*
X-21605319Y-28852760D01*
X-21938400Y-28965406D01*
X-22148882Y-29077910D01*
X-22262744Y-29357651D01*
X-23783000Y-29357651D01*
X-23783000Y-25543000D01*
X-17398429Y-25543000D01*
X-17398429Y-31597000D01*
X2427000Y-31597000D01*
X2427000Y-25543000D01*
X-17398429Y-25543000D01*
X-23783000Y-25543000D01*
X-23783000Y-5886890D01*
X13758524Y-5886890D01*
X13803175Y-6034099D01*
X13928359Y-6296920D01*
X14102412Y-6530269D01*
X14318645Y-6725178D01*
X14568748Y-6874157D01*
X14843109Y-6971481D01*
X15073000Y-6850814D01*
X15073000Y-5657000D01*
X15327000Y-5657000D01*
X15327000Y-6850814D01*
X15556891Y-6971481D01*
X15831252Y-6874157D01*
X16081355Y-6725178D01*
X16297588Y-6530269D01*
X16471641Y-6296920D01*
X16596825Y-6034099D01*
X16641476Y-5886890D01*
X16520155Y-5657000D01*
X15327000Y-5657000D01*
X15073000Y-5657000D01*
X13879845Y-5657000D01*
X13758524Y-5886890D01*
X-23783000Y-5886890D01*
X-23783000Y33313000D01*
X-15927000Y33313000D01*
X-15927000Y26400000D01*
%TA.AperFunction,Conductor*%
D23*
G36*
X-15927000Y26400000D02*
G01*
X-15924300Y26373954D01*
X-15916831Y26350205D01*
X-15904871Y26328369D01*
X-15888882Y26309286D01*
X-15869476Y26293689D01*
X-15847401Y26282178D01*
X-15823504Y26275194D01*
X-15798704Y26273007D01*
X3418804Y26469104D01*
X-2523298Y20527000D01*
X-2964293Y20527000D01*
X-3000001Y20530517D01*
X-3142518Y20516480D01*
X-3174413Y20506805D01*
X-3279557Y20474910D01*
X-3405853Y20407403D01*
X-3516554Y20316554D01*
X-3539321Y20288812D01*
X-5901132Y17927000D01*
X-15764295Y17927000D01*
X-15800001Y17930517D01*
X-15835706Y17927000D01*
X-15835708Y17927000D01*
X-15942517Y17916480D01*
X-16079557Y17874910D01*
X-16205853Y17807403D01*
X-16316554Y17716554D01*
X-16339321Y17688812D01*
X-18088811Y15939321D01*
X-18116553Y15916554D01*
X-18207402Y15805853D01*
X-18274910Y15679556D01*
X-18316480Y15542517D01*
X-18330517Y15400000D01*
X-18326999Y15364282D01*
X-18327000Y10454686D01*
X-18358885Y10422801D01*
X-18465806Y10262783D01*
X-18539454Y10084980D01*
X-18577000Y9896226D01*
X-18577000Y9703774D01*
X-18539454Y9515020D01*
X-18465806Y9337217D01*
X-18358885Y9177199D01*
X-18222801Y9041115D01*
X-18062783Y8934194D01*
X-17884980Y8860546D01*
X-17696226Y8823000D01*
X-17503774Y8823000D01*
X-17315020Y8860546D01*
X-17137217Y8934194D01*
X-16977199Y9041115D01*
X-16841115Y9177199D01*
X-16734194Y9337217D01*
X-16660546Y9515020D01*
X-16623000Y9703774D01*
X-16623000Y9896226D01*
X-16660546Y10084980D01*
X-16734194Y10262783D01*
X-16841115Y10422801D01*
X-16873000Y10454686D01*
X-16873000Y11896226D01*
X-8177000Y11896226D01*
X-8177000Y11703774D01*
X-8139454Y11515020D01*
X-8065806Y11337217D01*
X-7958885Y11177199D01*
X-7926999Y11145313D01*
X-7927000Y1835708D01*
X-7930517Y1800000D01*
X-7927000Y1764293D01*
X-7916480Y1657484D01*
X-7874910Y1520444D01*
X-7807403Y1394148D01*
X-7716554Y1283447D01*
X-7688812Y1260679D01*
X-7539322Y1111189D01*
X-7516554Y1083446D01*
X-7405853Y992597D01*
X-7279557Y925090D01*
X-7211037Y904305D01*
X-7142518Y883520D01*
X-7056759Y875073D01*
X-7022801Y841115D01*
X-6862783Y734194D01*
X-6684980Y660546D01*
X-6496226Y623000D01*
X-6303774Y623000D01*
X-6115020Y660546D01*
X-5937217Y734194D01*
X-5777199Y841115D01*
X-5641115Y977199D01*
X-5534194Y1137217D01*
X-5460546Y1315020D01*
X-5423000Y1503774D01*
X-5423000Y1696226D01*
X-5460546Y1884980D01*
X-5534194Y2062783D01*
X-5641115Y2222801D01*
X-5777199Y2358885D01*
X-5937217Y2465806D01*
X-6115020Y2539454D01*
X-6303774Y2577000D01*
X-6473000Y2577000D01*
X-6473000Y11145314D01*
X-6441115Y11177199D01*
X-6334194Y11337217D01*
X-6260546Y11515020D01*
X-6223000Y11703774D01*
X-6223000Y11843110D01*
X4758524Y11843110D01*
X4803175Y11695901D01*
X4928359Y11433080D01*
X5102412Y11199731D01*
X5318645Y11004822D01*
X5345445Y10988858D01*
X5256492Y10980097D01*
X5166577Y10952822D01*
X5083711Y10908529D01*
X5011079Y10848921D01*
X4951471Y10776289D01*
X4907178Y10693423D01*
X4879903Y10603508D01*
X4870693Y10510000D01*
X4870693Y8810000D01*
X4879903Y8716492D01*
X4907178Y8626577D01*
X4951471Y8543711D01*
X5011079Y8471079D01*
X5083711Y8411471D01*
X5166577Y8367178D01*
X5256492Y8339903D01*
X5350000Y8330693D01*
X7050000Y8330693D01*
X7143508Y8339903D01*
X7233423Y8367178D01*
X7316289Y8411471D01*
X7388921Y8471079D01*
X7448529Y8543711D01*
X7492822Y8626577D01*
X7520097Y8716492D01*
X7529307Y8810000D01*
X7529307Y10510000D01*
X7520097Y10603508D01*
X7492822Y10693423D01*
X7448529Y10776289D01*
X7388921Y10848921D01*
X7316289Y10908529D01*
X7233423Y10952822D01*
X7143508Y10980097D01*
X7054555Y10988858D01*
X7081355Y11004822D01*
X7297588Y11199731D01*
X7471641Y11433080D01*
X7596825Y11695901D01*
X7641476Y11843110D01*
X7520155Y12073000D01*
X6327000Y12073000D01*
X6327000Y12053000D01*
X6073000Y12053000D01*
X6073000Y12073000D01*
X4879845Y12073000D01*
X4758524Y11843110D01*
X-6223000Y11843110D01*
X-6223000Y11896226D01*
X-6260546Y12084980D01*
X-6334194Y12262783D01*
X-6441115Y12422801D01*
X-6575204Y12556890D01*
X4758524Y12556890D01*
X4879845Y12327000D01*
X6073000Y12327000D01*
X6073000Y13520814D01*
X6327000Y13520814D01*
X6327000Y12327000D01*
X7520155Y12327000D01*
X7641476Y12556890D01*
X7596825Y12704099D01*
X7471641Y12966920D01*
X7297588Y13200269D01*
X7081355Y13395178D01*
X6831252Y13544157D01*
X6556891Y13641481D01*
X6327000Y13520814D01*
X6073000Y13520814D01*
X5843109Y13641481D01*
X5568748Y13544157D01*
X5318645Y13395178D01*
X5102412Y13200269D01*
X4928359Y12966920D01*
X4803175Y12704099D01*
X4758524Y12556890D01*
X-6575204Y12556890D01*
X-6577199Y12558885D01*
X-6737217Y12665806D01*
X-6915020Y12739454D01*
X-7103774Y12777000D01*
X-7296226Y12777000D01*
X-7484980Y12739454D01*
X-7662783Y12665806D01*
X-7822801Y12558885D01*
X-7958885Y12422801D01*
X-8065806Y12262783D01*
X-8139454Y12084980D01*
X-8177000Y11896226D01*
X-16873000Y11896226D01*
X-16873000Y13541021D01*
X-16862783Y13534194D01*
X-16684980Y13460546D01*
X-16496226Y13423000D01*
X-16303774Y13423000D01*
X-16115020Y13460546D01*
X-15937217Y13534194D01*
X-15777199Y13641115D01*
X-15641115Y13777199D01*
X-15534194Y13937217D01*
X-15460546Y14115020D01*
X-15429121Y14273000D01*
X8298868Y14273000D01*
X10510679Y12061188D01*
X10533446Y12033446D01*
X10644147Y11942597D01*
X10770443Y11875090D01*
X10875587Y11843195D01*
X10907482Y11833520D01*
X11049999Y11819483D01*
X11085707Y11823000D01*
X12708921Y11823000D01*
X12716302Y11809192D01*
X12882130Y11607130D01*
X13084192Y11441302D01*
X13204039Y11377243D01*
X13082719Y11365294D01*
X12945906Y11323792D01*
X12819819Y11256397D01*
X12709302Y11165698D01*
X12618603Y11055181D01*
X12551208Y10929094D01*
X12509706Y10792281D01*
X12495693Y10650000D01*
X12495693Y9623825D01*
X11911189Y9039321D01*
X11883447Y9016554D01*
X11815857Y8934194D01*
X11792598Y8905853D01*
X11725090Y8779556D01*
X11683520Y8642517D01*
X11669483Y8500000D01*
X11673001Y8464282D01*
X11673000Y-2364292D01*
X11669483Y-2400000D01*
X11683520Y-2542517D01*
X11716963Y-2652764D01*
X11725090Y-2679556D01*
X11792597Y-2805852D01*
X11883446Y-2916553D01*
X11911189Y-2939321D01*
X12450678Y-3478811D01*
X12473446Y-3506554D01*
X12584147Y-3597403D01*
X12681243Y-3649302D01*
X12710443Y-3664910D01*
X12847482Y-3706480D01*
X12989999Y-3720517D01*
X13025707Y-3717000D01*
X14089797Y-3717000D01*
X14169252Y-3835913D01*
X14354087Y-4020748D01*
X14571430Y-4165972D01*
X14596035Y-4176164D01*
X14568748Y-4185843D01*
X14318645Y-4334822D01*
X14102412Y-4529731D01*
X13928359Y-4763080D01*
X13803175Y-5025901D01*
X13758524Y-5173110D01*
X13879845Y-5403000D01*
X15073000Y-5403000D01*
X15073000Y-5383000D01*
X15327000Y-5383000D01*
X15327000Y-5403000D01*
X16520155Y-5403000D01*
X16641476Y-5173110D01*
X16596825Y-5025901D01*
X16471641Y-4763080D01*
X16297588Y-4529731D01*
X16081355Y-4334822D01*
X15831252Y-4185843D01*
X15803965Y-4176164D01*
X15828570Y-4165972D01*
X16045913Y-4020748D01*
X16199661Y-3867000D01*
X16326735Y-3867000D01*
X17223000Y-4763266D01*
X17223001Y-7736734D01*
X17136735Y-7823000D01*
X-1656924Y-7823000D01*
X-1700001Y-7818757D01*
X-1743078Y-7823000D01*
X-1743079Y-7823000D01*
X-1871922Y-7835690D01*
X-2037237Y-7885838D01*
X-2189592Y-7967273D01*
X-2323133Y-8076867D01*
X-2350594Y-8110329D01*
X-8563265Y-14323000D01*
X-19829217Y-14323000D01*
X-19936227Y-14162848D01*
X-20162848Y-13936227D01*
X-20429327Y-13758172D01*
X-20725422Y-13635525D01*
X-21039755Y-13573000D01*
X-21360245Y-13573000D01*
X-21674578Y-13635525D01*
X-21970673Y-13758172D01*
X-22237152Y-13936227D01*
X-22463773Y-14162848D01*
X-22641828Y-14429327D01*
X-22764475Y-14725422D01*
X-22827000Y-15039755D01*
X-22827000Y-15360245D01*
X-22764475Y-15674578D01*
X-22641828Y-15970673D01*
X-22463773Y-16237152D01*
X-22237152Y-16463773D01*
X-21970673Y-16641828D01*
X-21674578Y-16764475D01*
X-21360245Y-16827000D01*
X-21039755Y-16827000D01*
X-20725422Y-16764475D01*
X-20429327Y-16641828D01*
X-20162848Y-16463773D01*
X-19936227Y-16237152D01*
X-19829217Y-16077000D01*
X-8243079Y-16077000D01*
X-8200000Y-16081243D01*
X-8156921Y-16077000D01*
X-8028078Y-16064310D01*
X-7862763Y-16014162D01*
X-7710408Y-15932727D01*
X-7576867Y-15823133D01*
X-7549403Y-15789668D01*
X-1336735Y-9577000D01*
X17456921Y-9577000D01*
X17500000Y-9581243D01*
X17543079Y-9577000D01*
X17671922Y-9564310D01*
X17837237Y-9514162D01*
X17989592Y-9432727D01*
X18123133Y-9323133D01*
X18150596Y-9289669D01*
X18689673Y-8750593D01*
X18723133Y-8723133D01*
X18832727Y-8589592D01*
X18914162Y-8437237D01*
X18964310Y-8271922D01*
X18977000Y-8143079D01*
X18977000Y-8143078D01*
X18981243Y-8100001D01*
X18977000Y-8056924D01*
X18977000Y-6676890D01*
X20508524Y-6676890D01*
X20553175Y-6824099D01*
X20678359Y-7086920D01*
X20852412Y-7320269D01*
X21068645Y-7515178D01*
X21318748Y-7664157D01*
X21593109Y-7761481D01*
X21823000Y-7640814D01*
X21823000Y-6447000D01*
X22077000Y-6447000D01*
X22077000Y-7640814D01*
X22306891Y-7761481D01*
X22581252Y-7664157D01*
X22831355Y-7515178D01*
X23047588Y-7320269D01*
X23221641Y-7086920D01*
X23346825Y-6824099D01*
X23391476Y-6676890D01*
X23270155Y-6447000D01*
X22077000Y-6447000D01*
X21823000Y-6447000D01*
X20629845Y-6447000D01*
X20508524Y-6676890D01*
X18977000Y-6676890D01*
X18977000Y-4763265D01*
X19083265Y-4657000D01*
X20950339Y-4657000D01*
X21104087Y-4810748D01*
X21321430Y-4955972D01*
X21346035Y-4966164D01*
X21318748Y-4975843D01*
X21068645Y-5124822D01*
X20852412Y-5319731D01*
X20678359Y-5553080D01*
X20553175Y-5815901D01*
X20508524Y-5963110D01*
X20629845Y-6193000D01*
X21823000Y-6193000D01*
X21823000Y-6173000D01*
X22077000Y-6173000D01*
X22077000Y-6193000D01*
X23270155Y-6193000D01*
X23391476Y-5963110D01*
X23346825Y-5815901D01*
X23221641Y-5553080D01*
X23047588Y-5319731D01*
X22831355Y-5124822D01*
X22581252Y-4975843D01*
X22553965Y-4966164D01*
X22578570Y-4955972D01*
X22795913Y-4810748D01*
X22980748Y-4625913D01*
X23125972Y-4408570D01*
X23226004Y-4167072D01*
X23277000Y-3910698D01*
X23277000Y-3649302D01*
X23226004Y-3392928D01*
X23125972Y-3151430D01*
X22980748Y-2934087D01*
X22795913Y-2749252D01*
X22578570Y-2604028D01*
X22351567Y-2510000D01*
X22578570Y-2415972D01*
X22795913Y-2270748D01*
X22980748Y-2085913D01*
X23125972Y-1868570D01*
X23226004Y-1627072D01*
X23277000Y-1370698D01*
X23277000Y-1109302D01*
X23226004Y-852928D01*
X23125972Y-611430D01*
X22980748Y-394087D01*
X22795913Y-209252D01*
X22578570Y-64028D01*
X22494746Y-29307D01*
X22800000Y-29307D01*
X22893508Y-20097D01*
X22983423Y7178D01*
X23066289Y51471D01*
X23138921Y111079D01*
X23198529Y183711D01*
X23242822Y266577D01*
X23270097Y356492D01*
X23279307Y450000D01*
X23279307Y2150000D01*
X23270097Y2243508D01*
X23242822Y2333423D01*
X23198529Y2416289D01*
X23138921Y2488921D01*
X23066289Y2548529D01*
X22983423Y2592822D01*
X22893508Y2620097D01*
X22800000Y2629307D01*
X21100000Y2629307D01*
X21006492Y2620097D01*
X20916577Y2592822D01*
X20833711Y2548529D01*
X20761079Y2488921D01*
X20701471Y2416289D01*
X20657178Y2333423D01*
X20629903Y2243508D01*
X20620693Y2150000D01*
X20620693Y450000D01*
X20629903Y356492D01*
X20657178Y266577D01*
X20701471Y183711D01*
X20761079Y111079D01*
X20833711Y51471D01*
X20916577Y7178D01*
X21006492Y-20097D01*
X21100000Y-29307D01*
X21405254Y-29307D01*
X21321430Y-64028D01*
X21104087Y-209252D01*
X20919252Y-394087D01*
X20774028Y-611430D01*
X20673996Y-852928D01*
X20623000Y-1109302D01*
X20623000Y-1370698D01*
X20673996Y-1627072D01*
X20774028Y-1868570D01*
X20919252Y-2085913D01*
X21104087Y-2270748D01*
X21321430Y-2415972D01*
X21548433Y-2510000D01*
X21321430Y-2604028D01*
X21104087Y-2749252D01*
X20950339Y-2903000D01*
X18763069Y-2903000D01*
X18719999Y-2898758D01*
X18676930Y-2903000D01*
X18676921Y-2903000D01*
X18548078Y-2915690D01*
X18382763Y-2965838D01*
X18230408Y-3047273D01*
X18097013Y-3156747D01*
X17340597Y-2400331D01*
X17313133Y-2366867D01*
X17179592Y-2257273D01*
X17027237Y-2175838D01*
X16861922Y-2125690D01*
X16733079Y-2113000D01*
X16690000Y-2108757D01*
X16646921Y-2113000D01*
X16199661Y-2113000D01*
X16045913Y-1959252D01*
X15828570Y-1814028D01*
X15744746Y-1779307D01*
X16050000Y-1779307D01*
X16143508Y-1770097D01*
X16233423Y-1742822D01*
X16316289Y-1698529D01*
X16388921Y-1638921D01*
X16448529Y-1566289D01*
X16492822Y-1483423D01*
X16520097Y-1393508D01*
X16529307Y-1300000D01*
X16529307Y400000D01*
X16520097Y493508D01*
X16492822Y583423D01*
X16448529Y666289D01*
X16388921Y738921D01*
X16316289Y798529D01*
X16233423Y842822D01*
X16143508Y870097D01*
X16050000Y879307D01*
X14350000Y879307D01*
X14256492Y870097D01*
X14166577Y842822D01*
X14083711Y798529D01*
X14011079Y738921D01*
X13951471Y666289D01*
X13907178Y583423D01*
X13879903Y493508D01*
X13870693Y400000D01*
X13870693Y-1300000D01*
X13879903Y-1393508D01*
X13907178Y-1483423D01*
X13951471Y-1566289D01*
X14011079Y-1638921D01*
X14083711Y-1698529D01*
X14166577Y-1742822D01*
X14256492Y-1770097D01*
X14350000Y-1779307D01*
X14655254Y-1779307D01*
X14571430Y-1814028D01*
X14354087Y-1959252D01*
X14169252Y-2144087D01*
X14089797Y-2263000D01*
X13291133Y-2263000D01*
X13127000Y-2098868D01*
X13127000Y8198868D01*
X13648825Y8720693D01*
X14675000Y8720693D01*
X14817281Y8734706D01*
X14954094Y8776208D01*
X15080181Y8843603D01*
X15190698Y8934302D01*
X15281397Y9044819D01*
X15348792Y9170906D01*
X15390294Y9307719D01*
X15404307Y9450000D01*
X15404307Y10650000D01*
X15390294Y10792281D01*
X15348792Y10929094D01*
X15281397Y11055181D01*
X15190698Y11165698D01*
X15080181Y11256397D01*
X14954094Y11323792D01*
X14817281Y11365294D01*
X14695961Y11377243D01*
X14815808Y11441302D01*
X15017870Y11607130D01*
X15183698Y11809192D01*
X15306919Y12039722D01*
X15382799Y12289863D01*
X15408420Y12550000D01*
X15382799Y12810137D01*
X15306919Y13060278D01*
X15183698Y13290808D01*
X15017870Y13492870D01*
X14815808Y13658698D01*
X14709702Y13715413D01*
X14852570Y13784947D01*
X15084429Y13960951D01*
X15277496Y14178807D01*
X15424352Y14430142D01*
X15516476Y14693110D01*
X15395155Y14923000D01*
X14077000Y14923000D01*
X14077000Y14903000D01*
X13823000Y14903000D01*
X13823000Y14923000D01*
X12504845Y14923000D01*
X12383524Y14693110D01*
X12475648Y14430142D01*
X12622504Y14178807D01*
X12815571Y13960951D01*
X13047430Y13784947D01*
X13190298Y13715413D01*
X13084192Y13658698D01*
X12882130Y13492870D01*
X12716302Y13290808D01*
X12708921Y13277000D01*
X11351133Y13277000D01*
X9221243Y15406890D01*
X12383524Y15406890D01*
X12504845Y15177000D01*
X13823000Y15177000D01*
X13823000Y16376165D01*
X14077000Y16376165D01*
X14077000Y15177000D01*
X15395155Y15177000D01*
X15516476Y15406890D01*
X15424352Y15669858D01*
X15277496Y15921193D01*
X15084429Y16139049D01*
X14852570Y16315053D01*
X14590830Y16442442D01*
X14309267Y16516320D01*
X14077000Y16376165D01*
X13823000Y16376165D01*
X13590733Y16516320D01*
X13309170Y16442442D01*
X13047430Y16315053D01*
X12815571Y16139049D01*
X12622504Y15921193D01*
X12475648Y15669858D01*
X12383524Y15406890D01*
X9221243Y15406890D01*
X9139326Y15488806D01*
X9116554Y15516554D01*
X9005853Y15607403D01*
X8879557Y15674910D01*
X8742517Y15716480D01*
X8635708Y15727000D01*
X8600000Y15730517D01*
X8564292Y15727000D01*
X-15764293Y15727000D01*
X-15800001Y15730517D01*
X-15942518Y15716480D01*
X-15974413Y15706805D01*
X-16079557Y15674910D01*
X-16205853Y15607403D01*
X-16316554Y15516554D01*
X-16339322Y15488811D01*
X-16451133Y15377000D01*
X-16496226Y15377000D01*
X-16619361Y15352507D01*
X-15498867Y16473000D01*
X-5635708Y16473000D01*
X-5600000Y16469483D01*
X-5457483Y16483520D01*
X-5320443Y16525090D01*
X-5194147Y16592597D01*
X-5083446Y16683446D01*
X-5060674Y16711194D01*
X-2698867Y19073000D01*
X-2257874Y19073000D01*
X-2222166Y19069483D01*
X-2186458Y19073000D01*
X11164292Y19073000D01*
X11200000Y19069483D01*
X11342517Y19083520D01*
X11479557Y19125090D01*
X11605853Y19192597D01*
X11716554Y19283446D01*
X11739326Y19311194D01*
X13398826Y20970693D01*
X14425000Y20970693D01*
X14567281Y20984706D01*
X14704094Y21026208D01*
X14830181Y21093603D01*
X14940698Y21184302D01*
X15031397Y21294819D01*
X15098792Y21420906D01*
X15140294Y21557719D01*
X15154307Y21700000D01*
X15154307Y22900000D01*
X15140294Y23042281D01*
X15098792Y23179094D01*
X15031397Y23305181D01*
X14940698Y23415698D01*
X14830181Y23506397D01*
X14704094Y23573792D01*
X14668119Y23584705D01*
X14834429Y23710951D01*
X15027496Y23928807D01*
X15174352Y24180142D01*
X15266476Y24443110D01*
X15145155Y24673000D01*
X13827000Y24673000D01*
X13827000Y24653000D01*
X13573000Y24653000D01*
X13573000Y24673000D01*
X12254845Y24673000D01*
X12133524Y24443110D01*
X12225648Y24180142D01*
X12372504Y23928807D01*
X12565571Y23710951D01*
X12731881Y23584705D01*
X12695906Y23573792D01*
X12569819Y23506397D01*
X12459302Y23415698D01*
X12368603Y23305181D01*
X12301208Y23179094D01*
X12259706Y23042281D01*
X12245693Y22900000D01*
X12245693Y21873826D01*
X10898868Y20527000D01*
X-467034Y20527000D01*
X2429076Y23423110D01*
X5258524Y23423110D01*
X5303175Y23275901D01*
X5428359Y23013080D01*
X5602412Y22779731D01*
X5818645Y22584822D01*
X6068748Y22435843D01*
X6343109Y22338519D01*
X6573000Y22459186D01*
X6573000Y23653000D01*
X6827000Y23653000D01*
X6827000Y22459186D01*
X7056891Y22338519D01*
X7331252Y22435843D01*
X7581355Y22584822D01*
X7797588Y22779731D01*
X7971641Y23013080D01*
X8096825Y23275901D01*
X8141476Y23423110D01*
X8020155Y23653000D01*
X6827000Y23653000D01*
X6573000Y23653000D01*
X5379845Y23653000D01*
X5258524Y23423110D01*
X2429076Y23423110D01*
X5373000Y26367032D01*
X5373000Y26189302D01*
X5423996Y25932928D01*
X5524028Y25691430D01*
X5669252Y25474087D01*
X5854087Y25289252D01*
X6071430Y25144028D01*
X6096035Y25133836D01*
X6068748Y25124157D01*
X5818645Y24975178D01*
X5602412Y24780269D01*
X5428359Y24546920D01*
X5303175Y24284099D01*
X5258524Y24136890D01*
X5379845Y23907000D01*
X6573000Y23907000D01*
X6573000Y23927000D01*
X6827000Y23927000D01*
X6827000Y23907000D01*
X8020155Y23907000D01*
X8141476Y24136890D01*
X8096825Y24284099D01*
X7971641Y24546920D01*
X7797588Y24780269D01*
X7581355Y24975178D01*
X7331252Y25124157D01*
X7303965Y25133836D01*
X7328570Y25144028D01*
X7347819Y25156890D01*
X12133524Y25156890D01*
X12254845Y24927000D01*
X13573000Y24927000D01*
X13573000Y24947000D01*
X13827000Y24947000D01*
X13827000Y24927000D01*
X15145155Y24927000D01*
X15266476Y25156890D01*
X15174352Y25419858D01*
X15027496Y25671193D01*
X14834429Y25889049D01*
X14602570Y26065053D01*
X14459702Y26134587D01*
X14565808Y26191302D01*
X14767870Y26357130D01*
X14933698Y26559192D01*
X15056919Y26789722D01*
X15132799Y27039863D01*
X15158420Y27300000D01*
X15132799Y27560137D01*
X15056919Y27810278D01*
X14933698Y28040808D01*
X14767870Y28242870D01*
X14565808Y28408698D01*
X14335278Y28531919D01*
X14275673Y28550000D01*
X14335278Y28568081D01*
X14565808Y28691302D01*
X14767870Y28857130D01*
X14933698Y29059192D01*
X15056919Y29289722D01*
X15132799Y29539863D01*
X15158420Y29800000D01*
X15132799Y30060137D01*
X15056919Y30310278D01*
X14933698Y30540808D01*
X14767870Y30742870D01*
X14565808Y30908698D01*
X14335278Y31031919D01*
X14085137Y31107799D01*
X13890184Y31127000D01*
X13509816Y31127000D01*
X13314863Y31107799D01*
X13064722Y31031919D01*
X12834192Y30908698D01*
X12632130Y30742870D01*
X12466302Y30540808D01*
X12343081Y30310278D01*
X12267201Y30060137D01*
X12241580Y29800000D01*
X12267201Y29539863D01*
X12343081Y29289722D01*
X12466302Y29059192D01*
X12632130Y28857130D01*
X12834192Y28691302D01*
X13064722Y28568081D01*
X13124327Y28550000D01*
X13064722Y28531919D01*
X12834192Y28408698D01*
X12632130Y28242870D01*
X12466302Y28040808D01*
X12343081Y27810278D01*
X12267201Y27560137D01*
X12241580Y27300000D01*
X12267201Y27039863D01*
X12343081Y26789722D01*
X12466302Y26559192D01*
X12632130Y26357130D01*
X12834192Y26191302D01*
X12940298Y26134587D01*
X12797430Y26065053D01*
X12565571Y25889049D01*
X12372504Y25671193D01*
X12225648Y25419858D01*
X12133524Y25156890D01*
X7347819Y25156890D01*
X7545913Y25289252D01*
X7730748Y25474087D01*
X7875972Y25691430D01*
X7976004Y25932928D01*
X8027000Y26189302D01*
X8027000Y26450698D01*
X7976004Y26707072D01*
X7875972Y26948570D01*
X7730748Y27165913D01*
X7545913Y27350748D01*
X7328570Y27495972D01*
X7101567Y27590000D01*
X7328570Y27684028D01*
X7545913Y27829252D01*
X7730748Y28014087D01*
X7875972Y28231430D01*
X7976004Y28472928D01*
X8027000Y28729302D01*
X8027000Y28990698D01*
X7976004Y29247072D01*
X7875972Y29488570D01*
X7730748Y29705913D01*
X7545913Y29890748D01*
X7328570Y30035972D01*
X7244746Y30070693D01*
X7550000Y30070693D01*
X7643508Y30079903D01*
X7733423Y30107178D01*
X7816289Y30151471D01*
X7888921Y30211079D01*
X7948529Y30283711D01*
X7992822Y30366577D01*
X8020097Y30456492D01*
X8029307Y30550000D01*
X8029307Y32250000D01*
X8020097Y32343508D01*
X7992822Y32433423D01*
X7948529Y32516289D01*
X7888921Y32588921D01*
X7816289Y32648529D01*
X7733423Y32692822D01*
X7643508Y32720097D01*
X7550000Y32729307D01*
X5850000Y32729307D01*
X5756492Y32720097D01*
X5666577Y32692822D01*
X5583711Y32648529D01*
X5511079Y32588921D01*
X5451471Y32516289D01*
X5407178Y32433423D01*
X5379903Y32343508D01*
X5370693Y32250000D01*
X5370693Y32127000D01*
X5085718Y32127000D01*
X5050010Y32130517D01*
X5014302Y32127000D01*
X4907493Y32116480D01*
X4770453Y32074910D01*
X4644157Y32007403D01*
X4533456Y31916554D01*
X4442607Y31805853D01*
X4375100Y31679557D01*
X4333530Y31542517D01*
X4319493Y31400000D01*
X4323010Y31364292D01*
X4323011Y27373311D01*
X3927000Y26977300D01*
X3927000Y33313000D01*
X23793000Y33313000D01*
X23793001Y-33313000D01*
X13623924Y-33313000D01*
X19601827Y-33226987D01*
X19624207Y-33224672D01*
X19648065Y-33217553D01*
X19670075Y-33205918D01*
X19689392Y-33190212D01*
X19705273Y-33171039D01*
X19717110Y-33149136D01*
X19724445Y-33125345D01*
X19726999Y-33100580D01*
X19826999Y-11200580D01*
X19824560Y-11175224D01*
X19817333Y-11151399D01*
X19805597Y-11129443D01*
X19789803Y-11110197D01*
X19770557Y-11094403D01*
X19748601Y-11082667D01*
X19724776Y-11075440D01*
X19700000Y-11073000D01*
X5600000Y-11073000D01*
X5575224Y-11075440D01*
X5551399Y-11082667D01*
X5529443Y-11094403D01*
X5510197Y-11110197D01*
X5494403Y-11129443D01*
X5482667Y-11151399D01*
X5475440Y-11175224D01*
X5473000Y-11200000D01*
X5473000Y-11300000D01*
X5473001Y-11300577D01*
X5573001Y-33300577D01*
X5574344Y-33313000D01*
X-23783000Y-33313000D01*
X-23783000Y-31842349D01*
X-22262744Y-31842349D01*
X-22148882Y-32122090D01*
X-21833704Y-32277961D01*
X-21494174Y-32369349D01*
X-21143339Y-32392741D01*
X-20794681Y-32347240D01*
X-20461600Y-32234594D01*
X-20251118Y-32122090D01*
X-20137256Y-31842349D01*
X-21200000Y-30779605D01*
X-22262744Y-31842349D01*
X-23783000Y-31842349D01*
X-23783000Y-30656661D01*
X-22992741Y-30656661D01*
X-22947240Y-31005319D01*
X-22834594Y-31338400D01*
X-22722090Y-31548882D01*
X-22442349Y-31662744D01*
X-21379605Y-30600000D01*
X-21020395Y-30600000D01*
X-19957651Y-31662744D01*
X-19677910Y-31548882D01*
X-19522039Y-31233704D01*
X-19430651Y-30894174D01*
X-19407259Y-30543339D01*
X-19452760Y-30194681D01*
X-19565406Y-29861600D01*
X-19677910Y-29651118D01*
X-19957651Y-29537256D01*
X-21020395Y-30600000D01*
X-21379605Y-30600000D01*
X-22442349Y-29537256D01*
X-22722090Y-29651118D01*
X-22877961Y-29966296D01*
X-22969349Y-30305826D01*
X-22992741Y-30656661D01*
X-23783000Y-30656661D01*
X-23783000Y-29357651D01*
X-22262744Y-29357651D01*
X-21200000Y-30420395D01*
X-20137256Y-29357651D01*
X-20251118Y-29077910D01*
X-20566296Y-28922039D01*
X-20905826Y-28830651D01*
X-21256661Y-28807259D01*
X-21605319Y-28852760D01*
X-21938400Y-28965406D01*
X-22148882Y-29077910D01*
X-22262744Y-29357651D01*
X-23783000Y-29357651D01*
X-23783000Y-25543000D01*
X-17398429Y-25543000D01*
X-17398429Y-31597000D01*
X2427000Y-31597000D01*
X2427000Y-25543000D01*
X-17398429Y-25543000D01*
X-23783000Y-25543000D01*
X-23783000Y-5886890D01*
X13758524Y-5886890D01*
X13803175Y-6034099D01*
X13928359Y-6296920D01*
X14102412Y-6530269D01*
X14318645Y-6725178D01*
X14568748Y-6874157D01*
X14843109Y-6971481D01*
X15073000Y-6850814D01*
X15073000Y-5657000D01*
X15327000Y-5657000D01*
X15327000Y-6850814D01*
X15556891Y-6971481D01*
X15831252Y-6874157D01*
X16081355Y-6725178D01*
X16297588Y-6530269D01*
X16471641Y-6296920D01*
X16596825Y-6034099D01*
X16641476Y-5886890D01*
X16520155Y-5657000D01*
X15327000Y-5657000D01*
X15073000Y-5657000D01*
X13879845Y-5657000D01*
X13758524Y-5886890D01*
X-23783000Y-5886890D01*
X-23783000Y33313000D01*
X-15927000Y33313000D01*
X-15927000Y26400000D01*
G37*
%TD.AperFunction*%
%TD*%
M02*
