%TF.GenerationSoftware,KiCad,Pcbnew,(5.1.10)-1*%
%TF.CreationDate,2021-09-08T13:01:39+02:00*%
%TF.ProjectId,LUCES,4c554345-532e-46b6-9963-61645f706362,rev?*%
%TF.SameCoordinates,Original*%
%TF.FileFunction,Paste,Top*%
%TF.FilePolarity,Positive*%
%FSLAX46Y46*%
G04 Gerber Fmt 4.6, Leading zero omitted, Abs format (unit mm)*
G04 Created by KiCad (PCBNEW (5.1.10)-1) date 2021-09-08 13:01:39*
%MOMM*%
%LPD*%
G01*
G04 APERTURE LIST*
%ADD10R,2.500000X1.000000*%
%ADD11R,2.000000X1.500000*%
%ADD12R,2.000000X3.800000*%
%ADD13R,1.300000X1.550000*%
G04 APERTURE END LIST*
%TO.C,C5*%
G36*
G01*
X-14700001Y5650000D02*
X-13399999Y5650000D01*
G75*
G02*
X-13150000Y5400001I0J-249999D01*
G01*
X-13150000Y4749999D01*
G75*
G02*
X-13399999Y4500000I-249999J0D01*
G01*
X-14700001Y4500000D01*
G75*
G02*
X-14950000Y4749999I0J249999D01*
G01*
X-14950000Y5400001D01*
G75*
G02*
X-14700001Y5650000I249999J0D01*
G01*
G37*
G36*
G01*
X-14700001Y8600000D02*
X-13399999Y8600000D01*
G75*
G02*
X-13150000Y8350001I0J-249999D01*
G01*
X-13150000Y7699999D01*
G75*
G02*
X-13399999Y7450000I-249999J0D01*
G01*
X-14700001Y7450000D01*
G75*
G02*
X-14950000Y7699999I0J249999D01*
G01*
X-14950000Y8350001D01*
G75*
G02*
X-14700001Y8600000I249999J0D01*
G01*
G37*
%TD*%
%TO.C,R8*%
G36*
G01*
X-400000Y8149999D02*
X-400000Y9050001D01*
G75*
G02*
X-150001Y9300000I249999J0D01*
G01*
X550001Y9300000D01*
G75*
G02*
X800000Y9050001I0J-249999D01*
G01*
X800000Y8149999D01*
G75*
G02*
X550001Y7900000I-249999J0D01*
G01*
X-150001Y7900000D01*
G75*
G02*
X-400000Y8149999I0J249999D01*
G01*
G37*
G36*
G01*
X1600000Y8149999D02*
X1600000Y9050001D01*
G75*
G02*
X1849999Y9300000I249999J0D01*
G01*
X2550001Y9300000D01*
G75*
G02*
X2800000Y9050001I0J-249999D01*
G01*
X2800000Y8149999D01*
G75*
G02*
X2550001Y7900000I-249999J0D01*
G01*
X1849999Y7900000D01*
G75*
G02*
X1600000Y8149999I0J249999D01*
G01*
G37*
%TD*%
D10*
%TO.C,U3*%
X1550000Y25950000D03*
X1550000Y23950000D03*
X1550000Y21950000D03*
X1550000Y19950000D03*
X1550000Y17950000D03*
X1550000Y15950000D03*
X1550000Y13950000D03*
X1550000Y11950000D03*
X-13650000Y11950000D03*
X-13650000Y13950000D03*
X-13650000Y15950000D03*
X-13650000Y17950000D03*
X-13650000Y19950000D03*
X-13650000Y21950000D03*
X-13650000Y23950000D03*
X-13650000Y25950000D03*
%TD*%
%TO.C,C6*%
G36*
G01*
X-20675000Y5500000D02*
X-19725000Y5500000D01*
G75*
G02*
X-19475000Y5250000I0J-250000D01*
G01*
X-19475000Y4750000D01*
G75*
G02*
X-19725000Y4500000I-250000J0D01*
G01*
X-20675000Y4500000D01*
G75*
G02*
X-20925000Y4750000I0J250000D01*
G01*
X-20925000Y5250000D01*
G75*
G02*
X-20675000Y5500000I250000J0D01*
G01*
G37*
G36*
G01*
X-20675000Y7400000D02*
X-19725000Y7400000D01*
G75*
G02*
X-19475000Y7150000I0J-250000D01*
G01*
X-19475000Y6650000D01*
G75*
G02*
X-19725000Y6400000I-250000J0D01*
G01*
X-20675000Y6400000D01*
G75*
G02*
X-20925000Y6650000I0J250000D01*
G01*
X-20925000Y7150000D01*
G75*
G02*
X-20675000Y7400000I250000J0D01*
G01*
G37*
%TD*%
%TO.C,C4*%
G36*
G01*
X-20250000Y31025000D02*
X-20250000Y30075000D01*
G75*
G02*
X-20500000Y29825000I-250000J0D01*
G01*
X-21000000Y29825000D01*
G75*
G02*
X-21250000Y30075000I0J250000D01*
G01*
X-21250000Y31025000D01*
G75*
G02*
X-21000000Y31275000I250000J0D01*
G01*
X-20500000Y31275000D01*
G75*
G02*
X-20250000Y31025000I0J-250000D01*
G01*
G37*
G36*
G01*
X-18350000Y31025000D02*
X-18350000Y30075000D01*
G75*
G02*
X-18600000Y29825000I-250000J0D01*
G01*
X-19100000Y29825000D01*
G75*
G02*
X-19350000Y30075000I0J250000D01*
G01*
X-19350000Y31025000D01*
G75*
G02*
X-19100000Y31275000I250000J0D01*
G01*
X-18600000Y31275000D01*
G75*
G02*
X-18350000Y31025000I0J-250000D01*
G01*
G37*
%TD*%
%TO.C,C3*%
G36*
G01*
X-17700000Y-7549999D02*
X-17700000Y-8850001D01*
G75*
G02*
X-17949999Y-9100000I-249999J0D01*
G01*
X-18600001Y-9100000D01*
G75*
G02*
X-18850000Y-8850001I0J249999D01*
G01*
X-18850000Y-7549999D01*
G75*
G02*
X-18600001Y-7300000I249999J0D01*
G01*
X-17949999Y-7300000D01*
G75*
G02*
X-17700000Y-7549999I0J-249999D01*
G01*
G37*
G36*
G01*
X-14750000Y-7549999D02*
X-14750000Y-8850001D01*
G75*
G02*
X-14999999Y-9100000I-249999J0D01*
G01*
X-15650001Y-9100000D01*
G75*
G02*
X-15900000Y-8850001I0J249999D01*
G01*
X-15900000Y-7549999D01*
G75*
G02*
X-15650001Y-7300000I249999J0D01*
G01*
X-14999999Y-7300000D01*
G75*
G02*
X-14750000Y-7549999I0J-249999D01*
G01*
G37*
%TD*%
%TO.C,C2*%
G36*
G01*
X7400000Y575000D02*
X7400000Y1525000D01*
G75*
G02*
X7650000Y1775000I250000J0D01*
G01*
X8150000Y1775000D01*
G75*
G02*
X8400000Y1525000I0J-250000D01*
G01*
X8400000Y575000D01*
G75*
G02*
X8150000Y325000I-250000J0D01*
G01*
X7650000Y325000D01*
G75*
G02*
X7400000Y575000I0J250000D01*
G01*
G37*
G36*
G01*
X5500000Y575000D02*
X5500000Y1525000D01*
G75*
G02*
X5750000Y1775000I250000J0D01*
G01*
X6250000Y1775000D01*
G75*
G02*
X6500000Y1525000I0J-250000D01*
G01*
X6500000Y575000D01*
G75*
G02*
X6250000Y325000I-250000J0D01*
G01*
X5750000Y325000D01*
G75*
G02*
X5500000Y575000I0J250000D01*
G01*
G37*
%TD*%
%TO.C,C1*%
G36*
G01*
X-3275000Y-6050000D02*
X-2325000Y-6050000D01*
G75*
G02*
X-2075000Y-6300000I0J-250000D01*
G01*
X-2075000Y-6800000D01*
G75*
G02*
X-2325000Y-7050000I-250000J0D01*
G01*
X-3275000Y-7050000D01*
G75*
G02*
X-3525000Y-6800000I0J250000D01*
G01*
X-3525000Y-6300000D01*
G75*
G02*
X-3275000Y-6050000I250000J0D01*
G01*
G37*
G36*
G01*
X-3275000Y-4150000D02*
X-2325000Y-4150000D01*
G75*
G02*
X-2075000Y-4400000I0J-250000D01*
G01*
X-2075000Y-4900000D01*
G75*
G02*
X-2325000Y-5150000I-250000J0D01*
G01*
X-3275000Y-5150000D01*
G75*
G02*
X-3525000Y-4900000I0J250000D01*
G01*
X-3525000Y-4400000D01*
G75*
G02*
X-3275000Y-4150000I250000J0D01*
G01*
G37*
%TD*%
D11*
%TO.C,U2*%
X-13400000Y-3500000D03*
X-13400000Y1100000D03*
X-13400000Y-1200000D03*
D12*
X-19700000Y-1200000D03*
%TD*%
D13*
%TO.C,SW1*%
X-18300000Y25780000D03*
X-22800000Y25780000D03*
X-22800000Y17820000D03*
X-18300000Y17820000D03*
%TD*%
%TO.C,U1*%
G36*
G01*
X1695000Y-3450000D02*
X1395000Y-3450000D01*
G75*
G02*
X1245000Y-3300000I0J150000D01*
G01*
X1245000Y-1650000D01*
G75*
G02*
X1395000Y-1500000I150000J0D01*
G01*
X1695000Y-1500000D01*
G75*
G02*
X1845000Y-1650000I0J-150000D01*
G01*
X1845000Y-3300000D01*
G75*
G02*
X1695000Y-3450000I-150000J0D01*
G01*
G37*
G36*
G01*
X2965000Y-3450000D02*
X2665000Y-3450000D01*
G75*
G02*
X2515000Y-3300000I0J150000D01*
G01*
X2515000Y-1650000D01*
G75*
G02*
X2665000Y-1500000I150000J0D01*
G01*
X2965000Y-1500000D01*
G75*
G02*
X3115000Y-1650000I0J-150000D01*
G01*
X3115000Y-3300000D01*
G75*
G02*
X2965000Y-3450000I-150000J0D01*
G01*
G37*
G36*
G01*
X4235000Y-3450000D02*
X3935000Y-3450000D01*
G75*
G02*
X3785000Y-3300000I0J150000D01*
G01*
X3785000Y-1650000D01*
G75*
G02*
X3935000Y-1500000I150000J0D01*
G01*
X4235000Y-1500000D01*
G75*
G02*
X4385000Y-1650000I0J-150000D01*
G01*
X4385000Y-3300000D01*
G75*
G02*
X4235000Y-3450000I-150000J0D01*
G01*
G37*
G36*
G01*
X5505000Y-3450000D02*
X5205000Y-3450000D01*
G75*
G02*
X5055000Y-3300000I0J150000D01*
G01*
X5055000Y-1650000D01*
G75*
G02*
X5205000Y-1500000I150000J0D01*
G01*
X5505000Y-1500000D01*
G75*
G02*
X5655000Y-1650000I0J-150000D01*
G01*
X5655000Y-3300000D01*
G75*
G02*
X5505000Y-3450000I-150000J0D01*
G01*
G37*
G36*
G01*
X5505000Y-8400000D02*
X5205000Y-8400000D01*
G75*
G02*
X5055000Y-8250000I0J150000D01*
G01*
X5055000Y-6600000D01*
G75*
G02*
X5205000Y-6450000I150000J0D01*
G01*
X5505000Y-6450000D01*
G75*
G02*
X5655000Y-6600000I0J-150000D01*
G01*
X5655000Y-8250000D01*
G75*
G02*
X5505000Y-8400000I-150000J0D01*
G01*
G37*
G36*
G01*
X4235000Y-8400000D02*
X3935000Y-8400000D01*
G75*
G02*
X3785000Y-8250000I0J150000D01*
G01*
X3785000Y-6600000D01*
G75*
G02*
X3935000Y-6450000I150000J0D01*
G01*
X4235000Y-6450000D01*
G75*
G02*
X4385000Y-6600000I0J-150000D01*
G01*
X4385000Y-8250000D01*
G75*
G02*
X4235000Y-8400000I-150000J0D01*
G01*
G37*
G36*
G01*
X2965000Y-8400000D02*
X2665000Y-8400000D01*
G75*
G02*
X2515000Y-8250000I0J150000D01*
G01*
X2515000Y-6600000D01*
G75*
G02*
X2665000Y-6450000I150000J0D01*
G01*
X2965000Y-6450000D01*
G75*
G02*
X3115000Y-6600000I0J-150000D01*
G01*
X3115000Y-8250000D01*
G75*
G02*
X2965000Y-8400000I-150000J0D01*
G01*
G37*
G36*
G01*
X1695000Y-8400000D02*
X1395000Y-8400000D01*
G75*
G02*
X1245000Y-8250000I0J150000D01*
G01*
X1245000Y-6600000D01*
G75*
G02*
X1395000Y-6450000I150000J0D01*
G01*
X1695000Y-6450000D01*
G75*
G02*
X1845000Y-6600000I0J-150000D01*
G01*
X1845000Y-8250000D01*
G75*
G02*
X1695000Y-8400000I-150000J0D01*
G01*
G37*
%TD*%
%TO.C,R2*%
G36*
G01*
X-3250001Y-1200000D02*
X-2349999Y-1200000D01*
G75*
G02*
X-2100000Y-1449999I0J-249999D01*
G01*
X-2100000Y-2150001D01*
G75*
G02*
X-2349999Y-2400000I-249999J0D01*
G01*
X-3250001Y-2400000D01*
G75*
G02*
X-3500000Y-2150001I0J249999D01*
G01*
X-3500000Y-1449999D01*
G75*
G02*
X-3250001Y-1200000I249999J0D01*
G01*
G37*
G36*
G01*
X-3250001Y800000D02*
X-2349999Y800000D01*
G75*
G02*
X-2100000Y550001I0J-249999D01*
G01*
X-2100000Y-150001D01*
G75*
G02*
X-2349999Y-400000I-249999J0D01*
G01*
X-3250001Y-400000D01*
G75*
G02*
X-3500000Y-150001I0J249999D01*
G01*
X-3500000Y550001D01*
G75*
G02*
X-3250001Y800000I249999J0D01*
G01*
G37*
%TD*%
%TO.C,R1*%
G36*
G01*
X2800000Y549999D02*
X2800000Y1450001D01*
G75*
G02*
X3049999Y1700000I249999J0D01*
G01*
X3750001Y1700000D01*
G75*
G02*
X4000000Y1450001I0J-249999D01*
G01*
X4000000Y549999D01*
G75*
G02*
X3750001Y300000I-249999J0D01*
G01*
X3049999Y300000D01*
G75*
G02*
X2800000Y549999I0J249999D01*
G01*
G37*
G36*
G01*
X800000Y549999D02*
X800000Y1450001D01*
G75*
G02*
X1049999Y1700000I249999J0D01*
G01*
X1750001Y1700000D01*
G75*
G02*
X2000000Y1450001I0J-249999D01*
G01*
X2000000Y549999D01*
G75*
G02*
X1750001Y300000I-249999J0D01*
G01*
X1049999Y300000D01*
G75*
G02*
X800000Y549999I0J249999D01*
G01*
G37*
%TD*%
%TO.C,R3*%
G36*
G01*
X-21900000Y13749999D02*
X-21900000Y14650001D01*
G75*
G02*
X-21650001Y14900000I249999J0D01*
G01*
X-20949999Y14900000D01*
G75*
G02*
X-20700000Y14650001I0J-249999D01*
G01*
X-20700000Y13749999D01*
G75*
G02*
X-20949999Y13500000I-249999J0D01*
G01*
X-21650001Y13500000D01*
G75*
G02*
X-21900000Y13749999I0J249999D01*
G01*
G37*
G36*
G01*
X-19900000Y13749999D02*
X-19900000Y14650001D01*
G75*
G02*
X-19650001Y14900000I249999J0D01*
G01*
X-18949999Y14900000D01*
G75*
G02*
X-18700000Y14650001I0J-249999D01*
G01*
X-18700000Y13749999D01*
G75*
G02*
X-18949999Y13500000I-249999J0D01*
G01*
X-19650001Y13500000D01*
G75*
G02*
X-19900000Y13749999I0J249999D01*
G01*
G37*
%TD*%
%TO.C,R4*%
G36*
G01*
X-20850001Y10600000D02*
X-19949999Y10600000D01*
G75*
G02*
X-19700000Y10350001I0J-249999D01*
G01*
X-19700000Y9649999D01*
G75*
G02*
X-19949999Y9400000I-249999J0D01*
G01*
X-20850001Y9400000D01*
G75*
G02*
X-21100000Y9649999I0J249999D01*
G01*
X-21100000Y10350001D01*
G75*
G02*
X-20850001Y10600000I249999J0D01*
G01*
G37*
G36*
G01*
X-20850001Y12600000D02*
X-19949999Y12600000D01*
G75*
G02*
X-19700000Y12350001I0J-249999D01*
G01*
X-19700000Y11649999D01*
G75*
G02*
X-19949999Y11400000I-249999J0D01*
G01*
X-20850001Y11400000D01*
G75*
G02*
X-21100000Y11649999I0J249999D01*
G01*
X-21100000Y12350001D01*
G75*
G02*
X-20850001Y12600000I249999J0D01*
G01*
G37*
%TD*%
%TO.C,R5*%
G36*
G01*
X-5000000Y8250001D02*
X-5000000Y7349999D01*
G75*
G02*
X-5249999Y7100000I-249999J0D01*
G01*
X-5950001Y7100000D01*
G75*
G02*
X-6200000Y7349999I0J249999D01*
G01*
X-6200000Y8250001D01*
G75*
G02*
X-5950001Y8500000I249999J0D01*
G01*
X-5249999Y8500000D01*
G75*
G02*
X-5000000Y8250001I0J-249999D01*
G01*
G37*
G36*
G01*
X-3000000Y8250001D02*
X-3000000Y7349999D01*
G75*
G02*
X-3249999Y7100000I-249999J0D01*
G01*
X-3950001Y7100000D01*
G75*
G02*
X-4200000Y7349999I0J249999D01*
G01*
X-4200000Y8250001D01*
G75*
G02*
X-3950001Y8500000I249999J0D01*
G01*
X-3249999Y8500000D01*
G75*
G02*
X-3000000Y8250001I0J-249999D01*
G01*
G37*
%TD*%
%TO.C,R6*%
G36*
G01*
X6100000Y19099999D02*
X6100000Y20000001D01*
G75*
G02*
X6349999Y20250000I249999J0D01*
G01*
X7050001Y20250000D01*
G75*
G02*
X7300000Y20000001I0J-249999D01*
G01*
X7300000Y19099999D01*
G75*
G02*
X7050001Y18850000I-249999J0D01*
G01*
X6349999Y18850000D01*
G75*
G02*
X6100000Y19099999I0J249999D01*
G01*
G37*
G36*
G01*
X4100000Y19099999D02*
X4100000Y20000001D01*
G75*
G02*
X4349999Y20250000I249999J0D01*
G01*
X5050001Y20250000D01*
G75*
G02*
X5300000Y20000001I0J-249999D01*
G01*
X5300000Y19099999D01*
G75*
G02*
X5050001Y18850000I-249999J0D01*
G01*
X4349999Y18850000D01*
G75*
G02*
X4100000Y19099999I0J249999D01*
G01*
G37*
%TD*%
%TO.C,R7*%
G36*
G01*
X4100000Y16849999D02*
X4100000Y17750001D01*
G75*
G02*
X4349999Y18000000I249999J0D01*
G01*
X5050001Y18000000D01*
G75*
G02*
X5300000Y17750001I0J-249999D01*
G01*
X5300000Y16849999D01*
G75*
G02*
X5050001Y16600000I-249999J0D01*
G01*
X4349999Y16600000D01*
G75*
G02*
X4100000Y16849999I0J249999D01*
G01*
G37*
G36*
G01*
X6100000Y16849999D02*
X6100000Y17750001D01*
G75*
G02*
X6349999Y18000000I249999J0D01*
G01*
X7050001Y18000000D01*
G75*
G02*
X7300000Y17750001I0J-249999D01*
G01*
X7300000Y16849999D01*
G75*
G02*
X7050001Y16600000I-249999J0D01*
G01*
X6349999Y16600000D01*
G75*
G02*
X6100000Y16849999I0J249999D01*
G01*
G37*
%TD*%
M02*
