%TF.GenerationSoftware,KiCad,Pcbnew,(5.1.10)-1*%
%TF.CreationDate,2021-09-08T13:01:39+02:00*%
%TF.ProjectId,LUCES,4c554345-532e-46b6-9963-61645f706362,rev?*%
%TF.SameCoordinates,Original*%
%TF.FileFunction,Legend,Top*%
%TF.FilePolarity,Positive*%
%FSLAX46Y46*%
G04 Gerber Fmt 4.6, Leading zero omitted, Abs format (unit mm)*
G04 Created by KiCad (PCBNEW (5.1.10)-1) date 2021-09-08 13:01:39*
%MOMM*%
%LPD*%
G01*
G04 APERTURE LIST*
%ADD10C,0.120000*%
%ADD11C,0.150000*%
G04 APERTURE END LIST*
D10*
X9700000Y3050000D02*
X17200000Y3050000D01*
X17200000Y-7700000D02*
X17200000Y3050000D01*
X9700000Y-7700000D02*
X17200000Y-7700000D01*
X9700000Y3050000D02*
X9700000Y-7700000D01*
X23950000Y5300000D02*
X17950000Y5300000D01*
X23950000Y-9450000D02*
X23950000Y5300000D01*
X17950000Y-9450000D02*
X23950000Y-9450000D01*
X17950000Y5300000D02*
X17950000Y-9450000D01*
D11*
X12200000Y-6521428D02*
X12152380Y-6616666D01*
X12152380Y-6759523D01*
X12200000Y-6902380D01*
X12295238Y-6997619D01*
X12390476Y-7045238D01*
X12580952Y-7092857D01*
X12723809Y-7092857D01*
X12914285Y-7045238D01*
X13009523Y-6997619D01*
X13104761Y-6902380D01*
X13152380Y-6759523D01*
X13152380Y-6664285D01*
X13104761Y-6521428D01*
X13057142Y-6473809D01*
X12723809Y-6473809D01*
X12723809Y-6664285D01*
X13152380Y-6045238D02*
X12152380Y-6045238D01*
X13152380Y-5473809D01*
X12152380Y-5473809D01*
X13152380Y-4997619D02*
X12152380Y-4997619D01*
X12152380Y-4759523D01*
X12200000Y-4616666D01*
X12295238Y-4521428D01*
X12390476Y-4473809D01*
X12580952Y-4426190D01*
X12723809Y-4426190D01*
X12914285Y-4473809D01*
X13009523Y-4521428D01*
X13104761Y-4616666D01*
X13152380Y-4759523D01*
X13152380Y-4997619D01*
X12152380Y-2759523D02*
X12152380Y-3235714D01*
X12628571Y-3283333D01*
X12580952Y-3235714D01*
X12533333Y-3140476D01*
X12533333Y-2902380D01*
X12580952Y-2807142D01*
X12628571Y-2759523D01*
X12723809Y-2711904D01*
X12961904Y-2711904D01*
X13057142Y-2759523D01*
X13104761Y-2807142D01*
X13152380Y-2902380D01*
X13152380Y-3140476D01*
X13104761Y-3235714D01*
X13057142Y-3283333D01*
X12152380Y-2426190D02*
X13152380Y-2092857D01*
X12152380Y-1759523D01*
X13152380Y-664285D02*
X12152380Y-664285D01*
X12152380Y-283333D01*
X12200000Y-188095D01*
X12247619Y-140476D01*
X12342857Y-92857D01*
X12485714Y-92857D01*
X12580952Y-140476D01*
X12628571Y-188095D01*
X12676190Y-283333D01*
X12676190Y-664285D01*
X12152380Y240476D02*
X13152380Y478571D01*
X12438095Y669047D01*
X13152380Y859523D01*
X12152380Y1097619D01*
X13152380Y1478571D02*
X12152380Y1478571D01*
X12866666Y1811904D01*
X12152380Y2145238D01*
X13152380Y2145238D01*
X18450000Y-8319047D02*
X18402380Y-8414285D01*
X18402380Y-8557142D01*
X18450000Y-8700000D01*
X18545238Y-8795238D01*
X18640476Y-8842857D01*
X18830952Y-8890476D01*
X18973809Y-8890476D01*
X19164285Y-8842857D01*
X19259523Y-8795238D01*
X19354761Y-8700000D01*
X19402380Y-8557142D01*
X19402380Y-8461904D01*
X19354761Y-8319047D01*
X19307142Y-8271428D01*
X18973809Y-8271428D01*
X18973809Y-8461904D01*
X19402380Y-7842857D02*
X18402380Y-7842857D01*
X19402380Y-7271428D01*
X18402380Y-7271428D01*
X19402380Y-6795238D02*
X18402380Y-6795238D01*
X18402380Y-6557142D01*
X18450000Y-6414285D01*
X18545238Y-6319047D01*
X18640476Y-6271428D01*
X18830952Y-6223809D01*
X18973809Y-6223809D01*
X19164285Y-6271428D01*
X19259523Y-6319047D01*
X19354761Y-6414285D01*
X19402380Y-6557142D01*
X19402380Y-6795238D01*
X18402380Y-5176190D02*
X19402380Y-4842857D01*
X18402380Y-4509523D01*
X19307142Y-3604761D02*
X19354761Y-3652380D01*
X19402380Y-3795238D01*
X19402380Y-3890476D01*
X19354761Y-4033333D01*
X19259523Y-4128571D01*
X19164285Y-4176190D01*
X18973809Y-4223809D01*
X18830952Y-4223809D01*
X18640476Y-4176190D01*
X18545238Y-4128571D01*
X18450000Y-4033333D01*
X18402380Y-3890476D01*
X18402380Y-3795238D01*
X18450000Y-3652380D01*
X18497619Y-3604761D01*
X19307142Y-2604761D02*
X19354761Y-2652380D01*
X19402380Y-2795238D01*
X19402380Y-2890476D01*
X19354761Y-3033333D01*
X19259523Y-3128571D01*
X19164285Y-3176190D01*
X18973809Y-3223809D01*
X18830952Y-3223809D01*
X18640476Y-3176190D01*
X18545238Y-3128571D01*
X18450000Y-3033333D01*
X18402380Y-2890476D01*
X18402380Y-2795238D01*
X18450000Y-2652380D01*
X18497619Y-2604761D01*
X18402380Y-1509523D02*
X18402380Y-842857D01*
X19402380Y-1509523D01*
X19402380Y-842857D01*
X19307142Y109523D02*
X19354761Y61904D01*
X19402380Y-80952D01*
X19402380Y-176190D01*
X19354761Y-319047D01*
X19259523Y-414285D01*
X19164285Y-461904D01*
X18973809Y-509523D01*
X18830952Y-509523D01*
X18640476Y-461904D01*
X18545238Y-414285D01*
X18450000Y-319047D01*
X18402380Y-176190D01*
X18402380Y-80952D01*
X18450000Y61904D01*
X18497619Y109523D01*
X19402380Y1300000D02*
X18402380Y1300000D01*
X18402380Y1538095D01*
X18450000Y1680952D01*
X18545238Y1776190D01*
X18640476Y1823809D01*
X18830952Y1871428D01*
X18973809Y1871428D01*
X19164285Y1823809D01*
X19259523Y1776190D01*
X19354761Y1680952D01*
X19402380Y1538095D01*
X19402380Y1300000D01*
X19402380Y2300000D02*
X18402380Y2300000D01*
X19402380Y2776190D02*
X18402380Y2776190D01*
X19116666Y3109523D01*
X18402380Y3442857D01*
X19402380Y3442857D01*
X11402380Y-6854761D02*
X10402380Y-6854761D01*
X10402380Y-6473809D01*
X10450000Y-6378571D01*
X10497619Y-6330952D01*
X10592857Y-6283333D01*
X10735714Y-6283333D01*
X10830952Y-6330952D01*
X10878571Y-6378571D01*
X10926190Y-6473809D01*
X10926190Y-6854761D01*
X10402380Y-5950000D02*
X11402380Y-5711904D01*
X10688095Y-5521428D01*
X11402380Y-5330952D01*
X10402380Y-5092857D01*
X11402380Y-4711904D02*
X10402380Y-4711904D01*
X11116666Y-4378571D01*
X10402380Y-4045238D01*
X11402380Y-4045238D01*
X10354761Y-2854761D02*
X11640476Y-3711904D01*
X10402380Y-2330952D02*
X10402380Y-2235714D01*
X10450000Y-2140476D01*
X10497619Y-2092857D01*
X10592857Y-2045238D01*
X10783333Y-1997619D01*
X11021428Y-1997619D01*
X11211904Y-2045238D01*
X11307142Y-2092857D01*
X11354761Y-2140476D01*
X11402380Y-2235714D01*
X11402380Y-2330952D01*
X11354761Y-2426190D01*
X11307142Y-2473809D01*
X11211904Y-2521428D01*
X11021428Y-2569047D01*
X10783333Y-2569047D01*
X10592857Y-2521428D01*
X10497619Y-2473809D01*
X10450000Y-2426190D01*
X10402380Y-2330952D01*
X11021428Y-1569047D02*
X11021428Y-807142D01*
X11402380Y192857D02*
X11402380Y-378571D01*
X11402380Y-92857D02*
X10402380Y-92857D01*
X10545238Y-188095D01*
X10640476Y-283333D01*
X10688095Y-378571D01*
X10402380Y811904D02*
X10402380Y907142D01*
X10450000Y1002380D01*
X10497619Y1050000D01*
X10592857Y1097619D01*
X10783333Y1145238D01*
X11021428Y1145238D01*
X11211904Y1097619D01*
X11307142Y1050000D01*
X11354761Y1002380D01*
X11402380Y907142D01*
X11402380Y811904D01*
X11354761Y716666D01*
X11307142Y669047D01*
X11211904Y621428D01*
X11021428Y573809D01*
X10783333Y573809D01*
X10592857Y621428D01*
X10497619Y669047D01*
X10450000Y716666D01*
X10402380Y811904D01*
X10402380Y1430952D02*
X11402380Y1764285D01*
X10402380Y2097619D01*
X19747619Y4847619D02*
X20319047Y4847619D01*
X20033333Y3847619D02*
X20033333Y4847619D01*
X21223809Y3847619D02*
X20890476Y4323809D01*
X20652380Y3847619D02*
X20652380Y4847619D01*
X21033333Y4847619D01*
X21128571Y4800000D01*
X21176190Y4752380D01*
X21223809Y4657142D01*
X21223809Y4514285D01*
X21176190Y4419047D01*
X21128571Y4371428D01*
X21033333Y4323809D01*
X20652380Y4323809D01*
X21652380Y3847619D02*
X21652380Y4847619D01*
X22080952Y4133333D02*
X22557142Y4133333D01*
X21985714Y3847619D02*
X22319047Y4847619D01*
X22652380Y3847619D01*
X23557142Y3942857D02*
X23509523Y3895238D01*
X23366666Y3847619D01*
X23271428Y3847619D01*
X23128571Y3895238D01*
X23033333Y3990476D01*
X22985714Y4085714D01*
X22938095Y4276190D01*
X22938095Y4419047D01*
X22985714Y4609523D01*
X23033333Y4704761D01*
X23128571Y4800000D01*
X23271428Y4847619D01*
X23366666Y4847619D01*
X23509523Y4800000D01*
X23557142Y4752380D01*
X23652380Y11050000D02*
X22652380Y11050000D01*
X22652380Y11430952D01*
X22700000Y11526190D01*
X22747619Y11573809D01*
X22842857Y11621428D01*
X22985714Y11621428D01*
X23080952Y11573809D01*
X23128571Y11526190D01*
X23176190Y11430952D01*
X23176190Y11050000D01*
X23652380Y12050000D02*
X22652380Y12050000D01*
X23652380Y13097619D02*
X23176190Y12764285D01*
X23652380Y12526190D02*
X22652380Y12526190D01*
X22652380Y12907142D01*
X22700000Y13002380D01*
X22747619Y13050000D01*
X22842857Y13097619D01*
X22985714Y13097619D01*
X23080952Y13050000D01*
X23128571Y13002380D01*
X23176190Y12907142D01*
X23176190Y12526190D01*
X23402380Y22371428D02*
X23402380Y21895238D01*
X22402380Y21895238D01*
X22402380Y22704761D02*
X23211904Y22704761D01*
X23307142Y22752380D01*
X23354761Y22800000D01*
X23402380Y22895238D01*
X23402380Y23085714D01*
X23354761Y23180952D01*
X23307142Y23228571D01*
X23211904Y23276190D01*
X22402380Y23276190D01*
X22402380Y23657142D02*
X23402380Y24323809D01*
X22402380Y24323809D02*
X23402380Y23657142D01*
X23497619Y24466666D02*
X23497619Y25228571D01*
X23402380Y25466666D02*
X22402380Y25466666D01*
X23116666Y25800000D01*
X22402380Y26133333D01*
X23402380Y26133333D01*
X22878571Y26609523D02*
X22878571Y26942857D01*
X23402380Y27085714D02*
X23402380Y26609523D01*
X22402380Y26609523D01*
X22402380Y27085714D01*
X22402380Y27371428D02*
X22402380Y27942857D01*
X23402380Y27657142D02*
X22402380Y27657142D01*
X22878571Y28276190D02*
X22878571Y28609523D01*
X23402380Y28752380D02*
X23402380Y28276190D01*
X22402380Y28276190D01*
X22402380Y28752380D01*
X23402380Y29752380D02*
X22926190Y29419047D01*
X23402380Y29180952D02*
X22402380Y29180952D01*
X22402380Y29561904D01*
X22450000Y29657142D01*
X22497619Y29704761D01*
X22592857Y29752380D01*
X22735714Y29752380D01*
X22830952Y29704761D01*
X22878571Y29657142D01*
X22926190Y29561904D01*
X22926190Y29180952D01*
X3449999Y22680952D02*
X3402380Y22585714D01*
X3402380Y22442857D01*
X3449999Y22300000D01*
X3545238Y22204761D01*
X3640476Y22157142D01*
X3830952Y22109523D01*
X3973809Y22109523D01*
X4164285Y22157142D01*
X4259523Y22204761D01*
X4354761Y22300000D01*
X4402380Y22442857D01*
X4402380Y22538095D01*
X4354761Y22680952D01*
X4307142Y22728571D01*
X3973809Y22728571D01*
X3973809Y22538095D01*
X4402380Y23157142D02*
X3402380Y23157142D01*
X4402380Y23728571D01*
X3402380Y23728571D01*
X4402380Y24204761D02*
X3402380Y24204761D01*
X3402380Y24442857D01*
X3450000Y24585714D01*
X3545238Y24680952D01*
X3640476Y24728571D01*
X3830952Y24776190D01*
X3973809Y24776190D01*
X4164285Y24728571D01*
X4259523Y24680952D01*
X4354761Y24585714D01*
X4402380Y24442857D01*
X4402380Y24204761D01*
X4402380Y26538095D02*
X3926190Y26204761D01*
X4402380Y25966666D02*
X3402380Y25966666D01*
X3402380Y26347619D01*
X3450000Y26442857D01*
X3497619Y26490476D01*
X3592857Y26538095D01*
X3735714Y26538095D01*
X3830952Y26490476D01*
X3878571Y26442857D01*
X3926190Y26347619D01*
X3926190Y25966666D01*
X3402380Y26871428D02*
X4402380Y27538095D01*
X3402380Y27538095D02*
X4402380Y26871428D01*
X3402380Y28538095D02*
X3402380Y29109523D01*
X4402380Y28823809D02*
X3402380Y28823809D01*
X3402380Y29347619D02*
X4402380Y30014285D01*
X3402380Y30014285D02*
X4402380Y29347619D01*
X3402380Y31061904D02*
X3402380Y31680952D01*
X3783333Y31347619D01*
X3783333Y31490476D01*
X3830952Y31585714D01*
X3878571Y31633333D01*
X3973809Y31680952D01*
X4211904Y31680952D01*
X4307142Y31633333D01*
X4354761Y31585714D01*
X4402380Y31490476D01*
X4402380Y31204761D01*
X4354761Y31109523D01*
X4307142Y31061904D01*
X3402380Y31966666D02*
X4402380Y32300000D01*
X3402380Y32633333D01*
X3402380Y32871428D02*
X3402380Y33490476D01*
X3783333Y33157142D01*
X3783333Y33299999D01*
X3830952Y33395238D01*
X3878571Y33442857D01*
X3973809Y33490476D01*
X4211904Y33490476D01*
X4307142Y33442857D01*
X4354761Y33395238D01*
X4402380Y33299999D01*
X4402380Y33014285D01*
X4354761Y32919047D01*
X4307142Y32871428D01*
X4509523Y15071428D02*
X4176190Y15071428D01*
X4176190Y14547619D02*
X4176190Y15547619D01*
X4652380Y15547619D01*
X5509523Y14547619D02*
X5033333Y14547619D01*
X5033333Y15547619D01*
X5795238Y14833333D02*
X6271428Y14833333D01*
X5700000Y14547619D02*
X6033333Y15547619D01*
X6366666Y14547619D01*
X6652380Y14595238D02*
X6795238Y14547619D01*
X7033333Y14547619D01*
X7128571Y14595238D01*
X7176190Y14642857D01*
X7223809Y14738095D01*
X7223809Y14833333D01*
X7176190Y14928571D01*
X7128571Y14976190D01*
X7033333Y15023809D01*
X6842857Y15071428D01*
X6747619Y15119047D01*
X6700000Y15166666D01*
X6652380Y15261904D01*
X6652380Y15357142D01*
X6700000Y15452380D01*
X6747619Y15500000D01*
X6842857Y15547619D01*
X7080952Y15547619D01*
X7223809Y15500000D01*
X7652380Y14547619D02*
X7652380Y15547619D01*
X7652380Y15071428D02*
X8223809Y15071428D01*
X8223809Y14547619D02*
X8223809Y15547619D01*
X-15597619Y19347619D02*
X-16073809Y19014285D01*
X-15597619Y18776190D02*
X-16597619Y18776190D01*
X-16597619Y19157142D01*
X-16550000Y19252380D01*
X-16502380Y19300000D01*
X-16407142Y19347619D01*
X-16264285Y19347619D01*
X-16169047Y19300000D01*
X-16121428Y19252380D01*
X-16073809Y19157142D01*
X-16073809Y18776190D01*
X-16121428Y19776190D02*
X-16121428Y20109523D01*
X-15597619Y20252380D02*
X-15597619Y19776190D01*
X-16597619Y19776190D01*
X-16597619Y20252380D01*
X-15645238Y20633333D02*
X-15597619Y20776190D01*
X-15597619Y21014285D01*
X-15645238Y21109523D01*
X-15692857Y21157142D01*
X-15788095Y21204761D01*
X-15883333Y21204761D01*
X-15978571Y21157142D01*
X-16026190Y21109523D01*
X-16073809Y21014285D01*
X-16121428Y20823809D01*
X-16169047Y20728571D01*
X-16216666Y20680952D01*
X-16311904Y20633333D01*
X-16407142Y20633333D01*
X-16502380Y20680952D01*
X-16550000Y20728571D01*
X-16597619Y20823809D01*
X-16597619Y21061904D01*
X-16550000Y21204761D01*
X-16121428Y21633333D02*
X-16121428Y21966666D01*
X-15597619Y22109523D02*
X-15597619Y21633333D01*
X-16597619Y21633333D01*
X-16597619Y22109523D01*
X-16597619Y22395238D02*
X-16597619Y22966666D01*
X-15597619Y22680952D02*
X-16597619Y22680952D01*
X23402380Y-15795238D02*
X22402380Y-15795238D01*
X23402380Y-15223809D01*
X22402380Y-15223809D01*
X23497619Y-14985714D02*
X23497619Y-14223809D01*
X22402380Y-13795238D02*
X22402380Y-13604761D01*
X22450000Y-13509523D01*
X22545238Y-13414285D01*
X22735714Y-13366666D01*
X23069047Y-13366666D01*
X23259523Y-13414285D01*
X23354761Y-13509523D01*
X23402380Y-13604761D01*
X23402380Y-13795238D01*
X23354761Y-13890476D01*
X23259523Y-13985714D01*
X23069047Y-14033333D01*
X22735714Y-14033333D01*
X22545238Y-13985714D01*
X22450000Y-13890476D01*
X22402380Y-13795238D01*
X22402380Y-12938095D02*
X23211904Y-12938095D01*
X23307142Y-12890476D01*
X23354761Y-12842857D01*
X23402380Y-12747619D01*
X23402380Y-12557142D01*
X23354761Y-12461904D01*
X23307142Y-12414285D01*
X23211904Y-12366666D01*
X22402380Y-12366666D01*
X22402380Y-12033333D02*
X22402380Y-11461904D01*
X23402380Y-11747619D02*
X22402380Y-11747619D01*
X23402380Y-19950000D02*
X23402380Y-20426190D01*
X22402380Y-20426190D01*
X23497619Y-19854761D02*
X23497619Y-19092857D01*
X22402380Y-18664285D02*
X22402380Y-18473809D01*
X22450000Y-18378571D01*
X22545238Y-18283333D01*
X22735714Y-18235714D01*
X23069047Y-18235714D01*
X23259523Y-18283333D01*
X23354761Y-18378571D01*
X23402380Y-18473809D01*
X23402380Y-18664285D01*
X23354761Y-18759523D01*
X23259523Y-18854761D01*
X23069047Y-18902380D01*
X22735714Y-18902380D01*
X22545238Y-18854761D01*
X22450000Y-18759523D01*
X22402380Y-18664285D01*
X22402380Y-17807142D02*
X23211904Y-17807142D01*
X23307142Y-17759523D01*
X23354761Y-17711904D01*
X23402380Y-17616666D01*
X23402380Y-17426190D01*
X23354761Y-17330952D01*
X23307142Y-17283333D01*
X23211904Y-17235714D01*
X22402380Y-17235714D01*
X22402380Y-16902380D02*
X22402380Y-16330952D01*
X23402380Y-16616666D02*
X22402380Y-16616666D01*
X23402380Y-26878571D02*
X22402380Y-26878571D01*
X23402380Y-26307142D01*
X22402380Y-26307142D01*
X23497619Y-26069047D02*
X23497619Y-25307142D01*
X23402380Y-25069047D02*
X22402380Y-25069047D01*
X23402380Y-24592857D02*
X22402380Y-24592857D01*
X23402380Y-24021428D01*
X22402380Y-24021428D01*
X23402380Y-31533333D02*
X23402380Y-32009523D01*
X22402380Y-32009523D01*
X23497619Y-31438095D02*
X23497619Y-30676190D01*
X23402380Y-30438095D02*
X22402380Y-30438095D01*
X23402380Y-29961904D02*
X22402380Y-29961904D01*
X23402380Y-29390476D01*
X22402380Y-29390476D01*
D10*
%TO.C,C5*%
X-14960000Y7261252D02*
X-14960000Y5838748D01*
X-13140000Y7261252D02*
X-13140000Y5838748D01*
%TO.C,R8*%
X972936Y9335000D02*
X1427064Y9335000D01*
X972936Y7865000D02*
X1427064Y7865000D01*
%TO.C,J7*%
X13870000Y-6860000D02*
X16530000Y-6860000D01*
X13870000Y-1720000D02*
X13870000Y-6860000D01*
X16530000Y-1720000D02*
X16530000Y-6860000D01*
X13870000Y-1720000D02*
X16530000Y-1720000D01*
X13870000Y-450000D02*
X13870000Y880000D01*
X13870000Y880000D02*
X15200000Y880000D01*
%TO.C,J4*%
X20620000Y-7650000D02*
X23280000Y-7650000D01*
X20620000Y30000D02*
X20620000Y-7650000D01*
X23280000Y30000D02*
X23280000Y-7650000D01*
X20620000Y30000D02*
X23280000Y30000D01*
X20620000Y1300000D02*
X20620000Y2630000D01*
X20620000Y2630000D02*
X21950000Y2630000D01*
%TO.C,U3*%
X2070000Y24750000D02*
X2070000Y25150000D01*
X-14170000Y24750000D02*
X-14170000Y25150000D01*
X2070000Y22750000D02*
X2070000Y23150000D01*
X-14170000Y22750000D02*
X-14170000Y23150000D01*
X2070000Y20750000D02*
X2070000Y21150000D01*
X-14170000Y20750000D02*
X-14170000Y21150000D01*
X2070000Y18750000D02*
X2070000Y19150000D01*
X-14170000Y18750000D02*
X-14170000Y19150000D01*
X2070000Y16750000D02*
X2070000Y17150000D01*
X-14170000Y16750000D02*
X-14170000Y17150000D01*
X2070000Y14750000D02*
X2070000Y15150000D01*
X-14170000Y14750000D02*
X-14170000Y15150000D01*
X2070000Y12750000D02*
X2070000Y13150000D01*
X-14170000Y12750000D02*
X-14170000Y13150000D01*
X-15200000Y26450000D02*
X-15200000Y25450000D01*
X-14170000Y10330000D02*
X-14170000Y11150000D01*
X2070000Y10330000D02*
X-14170000Y10330000D01*
X2070000Y11150000D02*
X2070000Y10330000D01*
%TO.C,PS1*%
X10990000Y-26400000D02*
X10990000Y-24390000D01*
X-23600000Y-33000000D02*
X10600000Y-33000000D01*
X-23600000Y-12800000D02*
X-23600000Y-33000000D01*
X10600000Y-12800000D02*
X-23600000Y-12800000D01*
X10600000Y-33000000D02*
X10600000Y-12800000D01*
%TO.C,JP1*%
X7530000Y8330000D02*
X6200000Y8330000D01*
X7530000Y9660000D02*
X7530000Y8330000D01*
X7530000Y10930000D02*
X4870000Y10930000D01*
X4870000Y10930000D02*
X4870000Y13530000D01*
X7530000Y10930000D02*
X7530000Y13530000D01*
X7530000Y13530000D02*
X4870000Y13530000D01*
%TO.C,C6*%
X-20935000Y6211252D02*
X-20935000Y5688748D01*
X-19465000Y6211252D02*
X-19465000Y5688748D01*
%TO.C,C4*%
X-19538748Y31285000D02*
X-20061252Y31285000D01*
X-19538748Y29815000D02*
X-20061252Y29815000D01*
%TO.C,C3*%
X-16088748Y-7290000D02*
X-17511252Y-7290000D01*
X-16088748Y-9110000D02*
X-17511252Y-9110000D01*
%TO.C,C2*%
X6688748Y315000D02*
X7211252Y315000D01*
X6688748Y1785000D02*
X7211252Y1785000D01*
%TO.C,C1*%
X-3535000Y-5338748D02*
X-3535000Y-5861252D01*
X-2065000Y-5338748D02*
X-2065000Y-5861252D01*
%TO.C,U2*%
X-12450000Y-4610000D02*
X-18460000Y-4610000D01*
X-14700000Y2210000D02*
X-18460000Y2210000D01*
X-18460000Y-4610000D02*
X-18460000Y-3350000D01*
X-18460000Y2210000D02*
X-18460000Y950000D01*
%TO.C,J2*%
X21600000Y-21750000D02*
X21600000Y-21250000D01*
X20860000Y-21750000D02*
X21600000Y-21750000D01*
X17723000Y-15177000D02*
X17769000Y-15224000D01*
X15425000Y-12880000D02*
X15461000Y-12915000D01*
X17939000Y-14984000D02*
X17974000Y-15019000D01*
X15631000Y-12675000D02*
X15677000Y-12722000D01*
X11439000Y-11390000D02*
X21360000Y-11390000D01*
X11439000Y-21510000D02*
X21360000Y-21510000D01*
X21360000Y-21510000D02*
X21360000Y-11390000D01*
X11439000Y-21510000D02*
X11439000Y-11390000D01*
X14399000Y-21510000D02*
X14399000Y-11390000D01*
X19300000Y-21510000D02*
X19300000Y-11390000D01*
X20800000Y-21510000D02*
X20800000Y-11390000D01*
X18380000Y-13950000D02*
G75*
G03*
X18380000Y-13950000I-1680000J0D01*
G01*
X18380253Y-18921195D02*
G75*
G02*
X18235000Y-19634000I-1680253J-28805D01*
G01*
X17383042Y-20485426D02*
G75*
G02*
X16016000Y-20485000I-683042J1535426D01*
G01*
X15164574Y-19633042D02*
G75*
G02*
X15165000Y-18266000I1535426J683042D01*
G01*
X16016958Y-17414574D02*
G75*
G02*
X17384000Y-17415000I683042J-1535426D01*
G01*
X18234756Y-18266682D02*
G75*
G02*
X18380000Y-18950000I-1534756J-683318D01*
G01*
%TO.C,SW1*%
X-17320000Y18570000D02*
X-17320000Y25030000D01*
X-21850000Y18570000D02*
X-19250000Y18570000D01*
X-23780000Y18570000D02*
X-23780000Y25030000D01*
X-21850000Y25030000D02*
X-19250000Y25030000D01*
X-23750000Y18570000D02*
X-23780000Y18570000D01*
X-17320000Y18570000D02*
X-17350000Y18570000D01*
X-17320000Y25030000D02*
X-17350000Y25030000D01*
X-23780000Y25030000D02*
X-23750000Y25030000D01*
%TO.C,J5*%
X5370000Y32730000D02*
X6700000Y32730000D01*
X5370000Y31400000D02*
X5370000Y32730000D01*
X5370000Y30130000D02*
X8030000Y30130000D01*
X8030000Y30130000D02*
X8030000Y22450000D01*
X5370000Y30130000D02*
X5370000Y22450000D01*
X5370000Y22450000D02*
X8030000Y22450000D01*
%TO.C,U1*%
X890000Y-4950000D02*
X890000Y-8400000D01*
X890000Y-4950000D02*
X890000Y-3000000D01*
X6010000Y-4950000D02*
X6010000Y-6900000D01*
X6010000Y-4950000D02*
X6010000Y-3000000D01*
%TO.C,J6*%
X11850000Y10350000D02*
X12450000Y10050000D01*
X11850000Y9750000D02*
X11850000Y10350000D01*
X12450000Y10050000D02*
X11850000Y9750000D01*
X15550000Y15300000D02*
X15550000Y14800000D01*
X21050000Y15300000D02*
X15550000Y15300000D01*
X21050000Y14800000D02*
X21050000Y15300000D01*
X15550000Y14800000D02*
X21050000Y14800000D01*
X15550000Y12800000D02*
X15550000Y12300000D01*
X21050000Y12800000D02*
X15550000Y12800000D01*
X21050000Y12300000D02*
X21050000Y12800000D01*
X15550000Y12300000D02*
X21050000Y12300000D01*
X15550000Y10300000D02*
X15550000Y9800000D01*
X21050000Y10300000D02*
X15550000Y10300000D01*
X21050000Y9800000D02*
X21050000Y10300000D01*
X15550000Y9800000D02*
X21050000Y9800000D01*
X9940000Y16190000D02*
X14440000Y16190000D01*
X9940000Y17610000D02*
X9940000Y16190000D01*
X21660000Y17610000D02*
X9940000Y17610000D01*
X21660000Y12550000D02*
X21660000Y17610000D01*
X9940000Y8910000D02*
X14440000Y8910000D01*
X9940000Y7490000D02*
X9940000Y8910000D01*
X21660000Y7490000D02*
X9940000Y7490000D01*
X21660000Y12550000D02*
X21660000Y7490000D01*
%TO.C,J1*%
X21600000Y-33000000D02*
X21600000Y-32500000D01*
X20860000Y-33000000D02*
X21600000Y-33000000D01*
X17723000Y-26427000D02*
X17769000Y-26474000D01*
X15425000Y-24130000D02*
X15461000Y-24165000D01*
X17939000Y-26234000D02*
X17974000Y-26269000D01*
X15631000Y-23925000D02*
X15677000Y-23972000D01*
X11439000Y-22640000D02*
X21360000Y-22640000D01*
X11439000Y-32760000D02*
X21360000Y-32760000D01*
X21360000Y-32760000D02*
X21360000Y-22640000D01*
X11439000Y-32760000D02*
X11439000Y-22640000D01*
X14399000Y-32760000D02*
X14399000Y-22640000D01*
X19300000Y-32760000D02*
X19300000Y-22640000D01*
X20800000Y-32760000D02*
X20800000Y-22640000D01*
X18380000Y-25200000D02*
G75*
G03*
X18380000Y-25200000I-1680000J0D01*
G01*
X18380253Y-30171195D02*
G75*
G02*
X18235000Y-30884000I-1680253J-28805D01*
G01*
X17383042Y-31735426D02*
G75*
G02*
X16016000Y-31735000I-683042J1535426D01*
G01*
X15164574Y-30883042D02*
G75*
G02*
X15165000Y-29516000I1535426J683042D01*
G01*
X16016958Y-28664574D02*
G75*
G02*
X17384000Y-28665000I683042J-1535426D01*
G01*
X18234756Y-29516682D02*
G75*
G02*
X18380000Y-30200000I-1534756J-683318D01*
G01*
%TO.C,J3*%
X21410000Y26050000D02*
X21410000Y19740000D01*
X21410000Y19740000D02*
X9690000Y19740000D01*
X9690000Y19740000D02*
X9690000Y21160000D01*
X9690000Y21160000D02*
X14190000Y21160000D01*
X21410000Y26050000D02*
X21410000Y32360000D01*
X21410000Y32360000D02*
X9690000Y32360000D01*
X9690000Y32360000D02*
X9690000Y30940000D01*
X9690000Y30940000D02*
X14190000Y30940000D01*
X15300000Y22050000D02*
X20800000Y22050000D01*
X20800000Y22050000D02*
X20800000Y22550000D01*
X20800000Y22550000D02*
X15300000Y22550000D01*
X15300000Y22550000D02*
X15300000Y22050000D01*
X15300000Y24550000D02*
X20800000Y24550000D01*
X20800000Y24550000D02*
X20800000Y25050000D01*
X20800000Y25050000D02*
X15300000Y25050000D01*
X15300000Y25050000D02*
X15300000Y24550000D01*
X15300000Y27050000D02*
X20800000Y27050000D01*
X20800000Y27050000D02*
X20800000Y27550000D01*
X20800000Y27550000D02*
X15300000Y27550000D01*
X15300000Y27550000D02*
X15300000Y27050000D01*
X15300000Y29550000D02*
X20800000Y29550000D01*
X20800000Y29550000D02*
X20800000Y30050000D01*
X20800000Y30050000D02*
X15300000Y30050000D01*
X15300000Y30050000D02*
X15300000Y29550000D01*
X12200000Y22300000D02*
X11600000Y22000000D01*
X11600000Y22000000D02*
X11600000Y22600000D01*
X11600000Y22600000D02*
X12200000Y22300000D01*
%TO.C,R2*%
X-3535000Y-572936D02*
X-3535000Y-1027064D01*
X-2065000Y-572936D02*
X-2065000Y-1027064D01*
%TO.C,R1*%
X2172936Y265000D02*
X2627064Y265000D01*
X2172936Y1735000D02*
X2627064Y1735000D01*
%TO.C,R3*%
X-20527064Y14935000D02*
X-20072936Y14935000D01*
X-20527064Y13465000D02*
X-20072936Y13465000D01*
%TO.C,R4*%
X-21135000Y11227064D02*
X-21135000Y10772936D01*
X-19665000Y11227064D02*
X-19665000Y10772936D01*
%TO.C,R5*%
X-4372936Y8535000D02*
X-4827064Y8535000D01*
X-4372936Y7065000D02*
X-4827064Y7065000D01*
%TO.C,R6*%
X5472936Y18815000D02*
X5927064Y18815000D01*
X5472936Y20285000D02*
X5927064Y20285000D01*
%TO.C,R7*%
X5472936Y18035000D02*
X5927064Y18035000D01*
X5472936Y16565000D02*
X5927064Y16565000D01*
%TO.C,C5*%
D11*
X-11842857Y6383333D02*
X-11795238Y6335714D01*
X-11747619Y6192857D01*
X-11747619Y6097619D01*
X-11795238Y5954761D01*
X-11890476Y5859523D01*
X-11985714Y5811904D01*
X-12176190Y5764285D01*
X-12319047Y5764285D01*
X-12509523Y5811904D01*
X-12604761Y5859523D01*
X-12700000Y5954761D01*
X-12747619Y6097619D01*
X-12747619Y6192857D01*
X-12700000Y6335714D01*
X-12652380Y6383333D01*
X-12747619Y7288095D02*
X-12747619Y6811904D01*
X-12271428Y6764285D01*
X-12319047Y6811904D01*
X-12366666Y6907142D01*
X-12366666Y7145238D01*
X-12319047Y7240476D01*
X-12271428Y7288095D01*
X-12176190Y7335714D01*
X-11938095Y7335714D01*
X-11842857Y7288095D01*
X-11795238Y7240476D01*
X-11747619Y7145238D01*
X-11747619Y6907142D01*
X-11795238Y6811904D01*
X-11842857Y6764285D01*
%TO.C,R8*%
X2283333Y6397619D02*
X1950000Y6873809D01*
X1711904Y6397619D02*
X1711904Y7397619D01*
X2092857Y7397619D01*
X2188095Y7350000D01*
X2235714Y7302380D01*
X2283333Y7207142D01*
X2283333Y7064285D01*
X2235714Y6969047D01*
X2188095Y6921428D01*
X2092857Y6873809D01*
X1711904Y6873809D01*
X2854761Y6969047D02*
X2759523Y7016666D01*
X2711904Y7064285D01*
X2664285Y7159523D01*
X2664285Y7207142D01*
X2711904Y7302380D01*
X2759523Y7350000D01*
X2854761Y7397619D01*
X3045238Y7397619D01*
X3140476Y7350000D01*
X3188095Y7302380D01*
X3235714Y7207142D01*
X3235714Y7159523D01*
X3188095Y7064285D01*
X3140476Y7016666D01*
X3045238Y6969047D01*
X2854761Y6969047D01*
X2759523Y6921428D01*
X2711904Y6873809D01*
X2664285Y6778571D01*
X2664285Y6588095D01*
X2711904Y6492857D01*
X2759523Y6445238D01*
X2854761Y6397619D01*
X3045238Y6397619D01*
X3140476Y6445238D01*
X3188095Y6492857D01*
X3235714Y6588095D01*
X3235714Y6778571D01*
X3188095Y6873809D01*
X3140476Y6921428D01*
X3045238Y6969047D01*
%TO.C,J7*%
X14866666Y2427619D02*
X14866666Y1713333D01*
X14819047Y1570476D01*
X14723809Y1475238D01*
X14580952Y1427619D01*
X14485714Y1427619D01*
X15247619Y2427619D02*
X15914285Y2427619D01*
X15485714Y1427619D01*
%TO.C,J4*%
X21616666Y-8152380D02*
X21616666Y-8866666D01*
X21569047Y-9009523D01*
X21473809Y-9104761D01*
X21330952Y-9152380D01*
X21235714Y-9152380D01*
X22521428Y-8485714D02*
X22521428Y-9152380D01*
X22283333Y-8104761D02*
X22045238Y-8819047D01*
X22664285Y-8819047D01*
%TO.C,U3*%
X-6811904Y9997619D02*
X-6811904Y9188095D01*
X-6764285Y9092857D01*
X-6716666Y9045238D01*
X-6621428Y8997619D01*
X-6430952Y8997619D01*
X-6335714Y9045238D01*
X-6288095Y9092857D01*
X-6240476Y9188095D01*
X-6240476Y9997619D01*
X-5859523Y9997619D02*
X-5240476Y9997619D01*
X-5573809Y9616666D01*
X-5430952Y9616666D01*
X-5335714Y9569047D01*
X-5288095Y9521428D01*
X-5240476Y9426190D01*
X-5240476Y9188095D01*
X-5288095Y9092857D01*
X-5335714Y9045238D01*
X-5430952Y8997619D01*
X-5716666Y8997619D01*
X-5811904Y9045238D01*
X-5859523Y9092857D01*
%TO.C,PS1*%
X-17214285Y-12452380D02*
X-17214285Y-11452380D01*
X-16833333Y-11452380D01*
X-16738095Y-11500000D01*
X-16690476Y-11547619D01*
X-16642857Y-11642857D01*
X-16642857Y-11785714D01*
X-16690476Y-11880952D01*
X-16738095Y-11928571D01*
X-16833333Y-11976190D01*
X-17214285Y-11976190D01*
X-16261904Y-12404761D02*
X-16119047Y-12452380D01*
X-15880952Y-12452380D01*
X-15785714Y-12404761D01*
X-15738095Y-12357142D01*
X-15690476Y-12261904D01*
X-15690476Y-12166666D01*
X-15738095Y-12071428D01*
X-15785714Y-12023809D01*
X-15880952Y-11976190D01*
X-16071428Y-11928571D01*
X-16166666Y-11880952D01*
X-16214285Y-11833333D01*
X-16261904Y-11738095D01*
X-16261904Y-11642857D01*
X-16214285Y-11547619D01*
X-16166666Y-11500000D01*
X-16071428Y-11452380D01*
X-15833333Y-11452380D01*
X-15690476Y-11500000D01*
X-14738095Y-12452380D02*
X-15309523Y-12452380D01*
X-15023809Y-12452380D02*
X-15023809Y-11452380D01*
X-15119047Y-11595238D01*
X-15214285Y-11690476D01*
X-15309523Y-11738095D01*
%TO.C,JP1*%
X5366666Y7457619D02*
X5366666Y6743333D01*
X5319047Y6600476D01*
X5223809Y6505238D01*
X5080952Y6457619D01*
X4985714Y6457619D01*
X5842857Y6457619D02*
X5842857Y7457619D01*
X6223809Y7457619D01*
X6319047Y7410000D01*
X6366666Y7362380D01*
X6414285Y7267142D01*
X6414285Y7124285D01*
X6366666Y7029047D01*
X6319047Y6981428D01*
X6223809Y6933809D01*
X5842857Y6933809D01*
X7366666Y6457619D02*
X6795238Y6457619D01*
X7080952Y6457619D02*
X7080952Y7457619D01*
X6985714Y7314761D01*
X6890476Y7219523D01*
X6795238Y7171904D01*
%TO.C,C6*%
X-20366666Y8092857D02*
X-20414285Y8045238D01*
X-20557142Y7997619D01*
X-20652380Y7997619D01*
X-20795238Y8045238D01*
X-20890476Y8140476D01*
X-20938095Y8235714D01*
X-20985714Y8426190D01*
X-20985714Y8569047D01*
X-20938095Y8759523D01*
X-20890476Y8854761D01*
X-20795238Y8950000D01*
X-20652380Y8997619D01*
X-20557142Y8997619D01*
X-20414285Y8950000D01*
X-20366666Y8902380D01*
X-19509523Y8997619D02*
X-19700000Y8997619D01*
X-19795238Y8950000D01*
X-19842857Y8902380D01*
X-19938095Y8759523D01*
X-19985714Y8569047D01*
X-19985714Y8188095D01*
X-19938095Y8092857D01*
X-19890476Y8045238D01*
X-19795238Y7997619D01*
X-19604761Y7997619D01*
X-19509523Y8045238D01*
X-19461904Y8092857D01*
X-19414285Y8188095D01*
X-19414285Y8426190D01*
X-19461904Y8521428D01*
X-19509523Y8569047D01*
X-19604761Y8616666D01*
X-19795238Y8616666D01*
X-19890476Y8569047D01*
X-19938095Y8521428D01*
X-19985714Y8426190D01*
%TO.C,C4*%
X-16942857Y30383333D02*
X-16895238Y30335714D01*
X-16847619Y30192857D01*
X-16847619Y30097619D01*
X-16895238Y29954761D01*
X-16990476Y29859523D01*
X-17085714Y29811904D01*
X-17276190Y29764285D01*
X-17419047Y29764285D01*
X-17609523Y29811904D01*
X-17704761Y29859523D01*
X-17800000Y29954761D01*
X-17847619Y30097619D01*
X-17847619Y30192857D01*
X-17800000Y30335714D01*
X-17752380Y30383333D01*
X-17514285Y31240476D02*
X-16847619Y31240476D01*
X-17895238Y31002380D02*
X-17180952Y30764285D01*
X-17180952Y31383333D01*
%TO.C,C3*%
X-16966666Y-10407142D02*
X-17014285Y-10454761D01*
X-17157142Y-10502380D01*
X-17252380Y-10502380D01*
X-17395238Y-10454761D01*
X-17490476Y-10359523D01*
X-17538095Y-10264285D01*
X-17585714Y-10073809D01*
X-17585714Y-9930952D01*
X-17538095Y-9740476D01*
X-17490476Y-9645238D01*
X-17395238Y-9550000D01*
X-17252380Y-9502380D01*
X-17157142Y-9502380D01*
X-17014285Y-9550000D01*
X-16966666Y-9597619D01*
X-16633333Y-9502380D02*
X-16014285Y-9502380D01*
X-16347619Y-9883333D01*
X-16204761Y-9883333D01*
X-16109523Y-9930952D01*
X-16061904Y-9978571D01*
X-16014285Y-10073809D01*
X-16014285Y-10311904D01*
X-16061904Y-10407142D01*
X-16109523Y-10454761D01*
X-16204761Y-10502380D01*
X-16490476Y-10502380D01*
X-16585714Y-10454761D01*
X-16633333Y-10407142D01*
%TO.C,C2*%
X6733333Y2692857D02*
X6685714Y2645238D01*
X6542857Y2597619D01*
X6447619Y2597619D01*
X6304761Y2645238D01*
X6209523Y2740476D01*
X6161904Y2835714D01*
X6114285Y3026190D01*
X6114285Y3169047D01*
X6161904Y3359523D01*
X6209523Y3454761D01*
X6304761Y3550000D01*
X6447619Y3597619D01*
X6542857Y3597619D01*
X6685714Y3550000D01*
X6733333Y3502380D01*
X7114285Y3502380D02*
X7161904Y3550000D01*
X7257142Y3597619D01*
X7495238Y3597619D01*
X7590476Y3550000D01*
X7638095Y3502380D01*
X7685714Y3407142D01*
X7685714Y3311904D01*
X7638095Y3169047D01*
X7066666Y2597619D01*
X7685714Y2597619D01*
%TO.C,C1*%
X-4192857Y-5816666D02*
X-4145238Y-5864285D01*
X-4097619Y-6007142D01*
X-4097619Y-6102380D01*
X-4145238Y-6245238D01*
X-4240476Y-6340476D01*
X-4335714Y-6388095D01*
X-4526190Y-6435714D01*
X-4669047Y-6435714D01*
X-4859523Y-6388095D01*
X-4954761Y-6340476D01*
X-5050000Y-6245238D01*
X-5097619Y-6102380D01*
X-5097619Y-6007142D01*
X-5050000Y-5864285D01*
X-5002380Y-5816666D01*
X-4097619Y-4864285D02*
X-4097619Y-5435714D01*
X-4097619Y-5150000D02*
X-5097619Y-5149999D01*
X-4954761Y-5245238D01*
X-4859523Y-5340476D01*
X-4811904Y-5435714D01*
%TO.C,U2*%
X-11597619Y-1961904D02*
X-10788095Y-1961904D01*
X-10692857Y-1914285D01*
X-10645238Y-1866666D01*
X-10597619Y-1771428D01*
X-10597619Y-1580952D01*
X-10645238Y-1485714D01*
X-10692857Y-1438095D01*
X-10788095Y-1390476D01*
X-11597619Y-1390476D01*
X-11502380Y-961904D02*
X-11550000Y-914285D01*
X-11597619Y-819047D01*
X-11597619Y-580952D01*
X-11550000Y-485714D01*
X-11502380Y-438095D01*
X-11407142Y-390476D01*
X-11311904Y-390476D01*
X-11169047Y-438095D01*
X-10597619Y-1009523D01*
X-10597619Y-390476D01*
%TO.C,J2*%
X9892380Y-16783333D02*
X10606666Y-16783333D01*
X10749523Y-16830952D01*
X10844761Y-16926190D01*
X10892380Y-17069047D01*
X10892380Y-17164285D01*
X9987619Y-16354761D02*
X9940000Y-16307142D01*
X9892380Y-16211904D01*
X9892380Y-15973809D01*
X9940000Y-15878571D01*
X9987619Y-15830952D01*
X10082857Y-15783333D01*
X10178095Y-15783333D01*
X10320952Y-15830952D01*
X10892380Y-16402380D01*
X10892380Y-15783333D01*
%TO.C,SW1*%
X-23883333Y27395238D02*
X-23740476Y27347619D01*
X-23502380Y27347619D01*
X-23407142Y27395238D01*
X-23359523Y27442857D01*
X-23311904Y27538095D01*
X-23311904Y27633333D01*
X-23359523Y27728571D01*
X-23407142Y27776190D01*
X-23502380Y27823809D01*
X-23692857Y27871428D01*
X-23788095Y27919047D01*
X-23835714Y27966666D01*
X-23883333Y28061904D01*
X-23883333Y28157142D01*
X-23835714Y28252380D01*
X-23788095Y28300000D01*
X-23692857Y28347619D01*
X-23454761Y28347619D01*
X-23311904Y28300000D01*
X-22978571Y28347619D02*
X-22740476Y27347619D01*
X-22550000Y28061904D01*
X-22359523Y27347619D01*
X-22121428Y28347619D01*
X-21216666Y27347619D02*
X-21788095Y27347619D01*
X-21502380Y27347619D02*
X-21502380Y28347619D01*
X-21597619Y28204761D01*
X-21692857Y28109523D01*
X-21788095Y28061904D01*
%TO.C,J5*%
X6366666Y34277619D02*
X6366666Y33563333D01*
X6319047Y33420476D01*
X6223809Y33325238D01*
X6080952Y33277619D01*
X5985714Y33277619D01*
X7319047Y34277619D02*
X6842857Y34277619D01*
X6795238Y33801428D01*
X6842857Y33849047D01*
X6938095Y33896666D01*
X7176190Y33896666D01*
X7271428Y33849047D01*
X7319047Y33801428D01*
X7366666Y33706190D01*
X7366666Y33468095D01*
X7319047Y33372857D01*
X7271428Y33325238D01*
X7176190Y33277619D01*
X6938095Y33277619D01*
X6842857Y33325238D01*
X6795238Y33372857D01*
%TO.C,U1*%
X6402380Y-5711904D02*
X7211904Y-5711904D01*
X7307142Y-5664285D01*
X7354761Y-5616666D01*
X7402380Y-5521428D01*
X7402380Y-5330952D01*
X7354761Y-5235714D01*
X7307142Y-5188095D01*
X7211904Y-5140476D01*
X6402380Y-5140476D01*
X7402380Y-4140476D02*
X7402380Y-4711904D01*
X7402380Y-4426190D02*
X6402380Y-4426190D01*
X6545238Y-4521428D01*
X6640476Y-4616666D01*
X6688095Y-4711904D01*
%TO.C,J6*%
X22402380Y16466666D02*
X23116666Y16466666D01*
X23259523Y16419047D01*
X23354761Y16323809D01*
X23402380Y16180952D01*
X23402380Y16085714D01*
X22402380Y17371428D02*
X22402380Y17180952D01*
X22450000Y17085714D01*
X22497619Y17038095D01*
X22640476Y16942857D01*
X22830952Y16895238D01*
X23211904Y16895238D01*
X23307142Y16942857D01*
X23354761Y16990476D01*
X23402380Y17085714D01*
X23402380Y17276190D01*
X23354761Y17371428D01*
X23307142Y17419047D01*
X23211904Y17466666D01*
X22973809Y17466666D01*
X22878571Y17419047D01*
X22830952Y17371428D01*
X22783333Y17276190D01*
X22783333Y17085714D01*
X22830952Y16990476D01*
X22878571Y16942857D01*
X22973809Y16895238D01*
%TO.C,J1*%
X9892380Y-28033333D02*
X10606666Y-28033333D01*
X10749523Y-28080952D01*
X10844761Y-28176190D01*
X10892380Y-28319047D01*
X10892380Y-28414285D01*
X10892380Y-27033333D02*
X10892380Y-27604761D01*
X10892380Y-27319047D02*
X9892380Y-27319047D01*
X10035238Y-27414285D01*
X10130476Y-27509523D01*
X10178095Y-27604761D01*
%TO.C,J3*%
X22252380Y30866666D02*
X22966666Y30866666D01*
X23109523Y30819047D01*
X23204761Y30723809D01*
X23252380Y30580952D01*
X23252380Y30485714D01*
X22252380Y31247619D02*
X22252380Y31866666D01*
X22633333Y31533333D01*
X22633333Y31676190D01*
X22680952Y31771428D01*
X22728571Y31819047D01*
X22823809Y31866666D01*
X23061904Y31866666D01*
X23157142Y31819047D01*
X23204761Y31771428D01*
X23252380Y31676190D01*
X23252380Y31390476D01*
X23204761Y31295238D01*
X23157142Y31247619D01*
%TO.C,R2*%
X-3947619Y-966666D02*
X-4423809Y-1300000D01*
X-3947619Y-1538095D02*
X-4947619Y-1538095D01*
X-4947619Y-1157142D01*
X-4900000Y-1061904D01*
X-4852380Y-1014285D01*
X-4757142Y-966666D01*
X-4614285Y-966666D01*
X-4519047Y-1014285D01*
X-4471428Y-1061904D01*
X-4423809Y-1157142D01*
X-4423809Y-1538095D01*
X-4852380Y-585714D02*
X-4900000Y-538095D01*
X-4947619Y-442857D01*
X-4947619Y-204761D01*
X-4900000Y-109523D01*
X-4852380Y-61904D01*
X-4757142Y-14285D01*
X-4661904Y-14285D01*
X-4519047Y-61904D01*
X-3947619Y-633333D01*
X-3947619Y-14285D01*
%TO.C,R1*%
X2233333Y2547619D02*
X1900000Y3023809D01*
X1661904Y2547619D02*
X1661904Y3547619D01*
X2042857Y3547619D01*
X2138095Y3500000D01*
X2185714Y3452380D01*
X2233333Y3357142D01*
X2233333Y3214285D01*
X2185714Y3119047D01*
X2138095Y3071428D01*
X2042857Y3023809D01*
X1661904Y3023809D01*
X3185714Y2547619D02*
X2614285Y2547619D01*
X2900000Y2547619D02*
X2900000Y3547619D01*
X2804761Y3404761D01*
X2709523Y3309523D01*
X2614285Y3261904D01*
%TO.C,R3*%
X-17097619Y14033333D02*
X-17573809Y13700000D01*
X-17097619Y13461904D02*
X-18097619Y13461904D01*
X-18097619Y13842857D01*
X-18050000Y13938095D01*
X-18002380Y13985714D01*
X-17907142Y14033333D01*
X-17764285Y14033333D01*
X-17669047Y13985714D01*
X-17621428Y13938095D01*
X-17573809Y13842857D01*
X-17573809Y13461904D01*
X-18097619Y14366666D02*
X-18097619Y14985714D01*
X-17716666Y14652380D01*
X-17716666Y14795238D01*
X-17669047Y14890476D01*
X-17621428Y14938095D01*
X-17526190Y14985714D01*
X-17288095Y14985714D01*
X-17192857Y14938095D01*
X-17145238Y14890476D01*
X-17097619Y14795238D01*
X-17097619Y14509523D01*
X-17145238Y14414285D01*
X-17192857Y14366666D01*
%TO.C,R4*%
X-18297619Y10833333D02*
X-18773809Y10500000D01*
X-18297619Y10261904D02*
X-19297619Y10261904D01*
X-19297619Y10642857D01*
X-19250000Y10738095D01*
X-19202380Y10785714D01*
X-19107142Y10833333D01*
X-18964285Y10833333D01*
X-18869047Y10785714D01*
X-18821428Y10738095D01*
X-18773809Y10642857D01*
X-18773809Y10261904D01*
X-18964285Y11690476D02*
X-18297619Y11690476D01*
X-19345238Y11452380D02*
X-18630952Y11214285D01*
X-18630952Y11833333D01*
%TO.C,R5*%
X-4766666Y5697619D02*
X-5100000Y6173809D01*
X-5338095Y5697619D02*
X-5338095Y6697619D01*
X-4957142Y6697619D01*
X-4861904Y6650000D01*
X-4814285Y6602380D01*
X-4766666Y6507142D01*
X-4766666Y6364285D01*
X-4814285Y6269047D01*
X-4861904Y6221428D01*
X-4957142Y6173809D01*
X-5338095Y6173809D01*
X-3861904Y6697619D02*
X-4338095Y6697619D01*
X-4385714Y6221428D01*
X-4338095Y6269047D01*
X-4242857Y6316666D01*
X-4004761Y6316666D01*
X-3909523Y6269047D01*
X-3861904Y6221428D01*
X-3814285Y6126190D01*
X-3814285Y5888095D01*
X-3861904Y5792857D01*
X-3909523Y5745238D01*
X-4004761Y5697619D01*
X-4242857Y5697619D01*
X-4338095Y5745238D01*
X-4385714Y5792857D01*
%TO.C,R6*%
X8902380Y19383333D02*
X8426190Y19050000D01*
X8902380Y18811904D02*
X7902380Y18811904D01*
X7902380Y19192857D01*
X7950000Y19288095D01*
X7997619Y19335714D01*
X8092857Y19383333D01*
X8235714Y19383333D01*
X8330952Y19335714D01*
X8378571Y19288095D01*
X8426190Y19192857D01*
X8426190Y18811904D01*
X7902380Y20240476D02*
X7902380Y20050000D01*
X7950000Y19954761D01*
X7997619Y19907142D01*
X8140476Y19811904D01*
X8330952Y19764285D01*
X8711904Y19764285D01*
X8807142Y19811904D01*
X8854761Y19859523D01*
X8902380Y19954761D01*
X8902380Y20145238D01*
X8854761Y20240476D01*
X8807142Y20288095D01*
X8711904Y20335714D01*
X8473809Y20335714D01*
X8378571Y20288095D01*
X8330952Y20240476D01*
X8283333Y20145238D01*
X8283333Y19954761D01*
X8330952Y19859523D01*
X8378571Y19811904D01*
X8473809Y19764285D01*
%TO.C,R7*%
X8902380Y16883333D02*
X8426190Y16550000D01*
X8902380Y16311904D02*
X7902380Y16311904D01*
X7902380Y16692857D01*
X7950000Y16788095D01*
X7997619Y16835714D01*
X8092857Y16883333D01*
X8235714Y16883333D01*
X8330952Y16835714D01*
X8378571Y16788095D01*
X8426190Y16692857D01*
X8426190Y16311904D01*
X7902380Y17216666D02*
X7902380Y17883333D01*
X8902380Y17454761D01*
%TD*%
M02*
